<?xml version="1.0" encoding="UTF-8" standalone="no"?>
<svg
   width="520pt"
   height="655pt"
   viewBox="0 0 520 655"
   version="1.1"
   id="svg123"
   sodipodi:docname="icon.svg"
   inkscape:version="1.4 (e7c3feb100, 2024-10-09)"
   xmlns:inkscape="http://www.inkscape.org/namespaces/inkscape"
   xmlns:sodipodi="http://sodipodi.sourceforge.net/DTD/sodipodi-0.dtd"
   xmlns="http://www.w3.org/2000/svg"
   xmlns:svg="http://www.w3.org/2000/svg">
  <defs
     id="defs123" />
  <sodipodi:namedview
     id="namedview123"
     pagecolor="#505050"
     bordercolor="#ffffff"
     borderopacity="1"
     inkscape:showpageshadow="0"
     inkscape:pageopacity="0"
     inkscape:pagecheckerboard="1"
     inkscape:deskcolor="#505050"
     inkscape:document-units="pt"
     inkscape:zoom="0.68335663"
     inkscape:cx="182.92059"
     inkscape:cy="362.91446"
     inkscape:window-width="1920"
     inkscape:window-height="1052"
     inkscape:window-x="0"
     inkscape:window-y="0"
     inkscape:window-maximized="1"
     inkscape:current-layer="svg123" />
  <g
     id="#427856ff">
    <path
       fill="#427856"
       opacity="1.00"
       d=" M 200.69 14.11 C 200.15 10.66 202.11 7.25 205.03 5.50 C 207.81 5.20 210.29 7.10 212.68 8.31 C 219.79 17.11 224.43 27.63 229.31 37.77 C 231.83 44.98 235.56 51.68 237.86 58.97 C 240.15 66.95 244.39 74.19 246.84 82.12 C 249.57 88.24 251.10 94.77 253.44 101.02 C 255.29 107.92 257.99 114.61 259.01 121.72 C 259.89 127.85 262.94 134.00 261.32 140.25 C 259.02 142.30 255.78 142.41 252.90 142.91 C 250.53 143.21 248.15 143.43 245.77 143.56 C 244.17 137.16 246.70 129.54 241.84 124.14 C 236.58 119.54 229.00 119.88 222.90 116.98 C 217.99 114.29 217.09 107.15 211.43 105.47 C 208.40 104.24 205.54 106.25 202.92 107.51 C 202.60 101.30 204.50 94.85 202.06 88.88 C 198.89 78.69 195.68 68.41 190.64 58.97 C 190.94 58.45 191.53 57.42 191.83 56.90 C 193.92 56.32 196.02 55.74 198.11 55.15 C 199.86 50.47 202.43 46.19 204.75 41.79 C 206.57 38.49 204.07 35.00 203.22 31.81 C 201.82 26.00 201.25 20.04 200.69 14.11 M 214.46 29.87 C 214.49 31.27 214.48 32.66 214.51 34.06 C 213.29 33.98 212.07 33.87 210.86 33.76 C 209.43 35.63 207.81 37.51 207.38 39.90 C 206.60 42.89 209.06 45.30 209.98 47.95 C 208.19 51.07 203.28 50.25 201.30 53.31 C 200.37 54.96 200.17 56.88 199.74 58.69 C 203.74 70.46 210.69 80.91 216.03 92.08 C 221.34 99.06 222.26 108.07 226.30 115.69 C 226.88 115.69 228.04 115.67 228.62 115.67 C 230.69 111.95 231.74 107.58 230.56 103.38 C 228.33 94.65 224.99 85.32 228.57 76.45 C 229.10 73.84 231.76 72.96 233.93 72.11 C 234.46 66.17 233.18 60.30 231.09 54.77 C 229.64 51.12 226.30 48.53 225.39 44.63 C 223.87 39.05 220.99 33.90 216.95 29.76 C 216.33 29.79 215.08 29.84 214.46 29.87 Z"
       id="path1" />
    <path
       fill="#427856"
       opacity="1.00"
       d=" M 413.94 45.96 C 415.73 43.82 417.50 41.23 420.28 40.36 C 424.75 39.80 429.22 40.88 433.64 41.44 C 433.38 43.80 433.11 46.16 432.81 48.51 L 433.65 48.56 C 441.55 49.50 449.70 47.01 457.42 49.60 C 459.08 55.29 459.31 61.24 460.18 67.06 C 460.35 69.11 461.04 71.68 459.12 73.15 C 456.94 75.43 453.89 73.49 451.38 72.98 C 443.18 70.35 435.01 67.46 427.25 63.70 C 423.05 61.39 418.43 59.49 415.05 55.98 C 412.43 53.33 413.04 49.21 413.94 45.96 Z"
       id="path2" />
    <path
       fill="#427856"
       opacity="1.00"
       d=" M 203.91 122.79 C 208.13 125.37 212.92 122.89 217.41 123.56 C 223.14 126.14 227.61 131.08 230.40 136.66 C 231.59 139.43 234.33 140.83 236.90 142.07 C 232.17 142.07 227.46 142.44 222.73 142.40 C 217.05 141.89 211.19 140.84 206.29 137.76 C 204.62 136.89 203.95 135.04 203.76 133.28 C 203.72 129.78 203.89 126.29 203.91 122.79 Z"
       id="path3" />
    <path
       fill="#427856"
       opacity="1.00"
       d=" M 171.20 392.76 C 170.34 387.20 175.01 381.07 180.83 381.41 C 186.45 381.77 191.83 383.71 196.99 385.87 C 203.64 397.89 211.25 409.42 219.96 420.04 C 222.72 423.02 225.39 426.70 229.81 427.05 C 231.56 427.82 234.42 427.69 235.00 429.93 C 236.25 434.95 235.32 440.76 238.95 444.98 C 237.40 444.08 235.81 443.28 234.22 442.47 C 230.56 445.41 227.24 448.92 222.93 450.92 C 217.67 453.16 211.69 451.76 206.78 449.30 C 202.69 443.75 197.74 438.89 193.97 433.10 C 190.77 427.04 186.89 421.39 183.65 415.35 C 179.57 407.80 172.32 401.67 171.20 392.76 Z"
       id="path4" />
  </g>
  <g
     id="#18301fff">
    <path
       fill="#18301f"
       opacity="1.00"
       d=" M 191.80 17.66 C 192.82 14.00 197.66 10.20 200.69 14.11 C 201.25 20.04 201.82 26.00 203.22 31.81 C 202.96 33.66 202.63 35.50 202.30 37.35 C 199.56 38.56 196.80 39.71 194.17 41.14 C 192.97 33.37 191.57 25.56 191.80 17.66 Z"
       id="path5" />
    <path
       fill="#18301f"
       opacity="1.00"
       d=" M 187.06 47.01 C 187.47 46.69 188.30 46.05 188.71 45.73 C 188.79 50.19 188.63 54.86 190.64 58.97 C 195.68 68.41 198.89 78.69 202.06 88.88 C 201.68 97.57 202.45 106.25 202.67 114.94 C 202.91 121.06 202.83 127.22 203.76 133.28 C 203.95 135.04 204.62 136.89 206.29 137.76 C 211.19 140.84 217.05 141.89 222.73 142.40 C 230.39 143.11 238.08 143.65 245.77 143.56 C 248.15 143.43 250.53 143.21 252.90 142.91 C 252.72 144.35 252.54 145.80 252.35 147.25 C 250.00 148.52 247.56 149.66 245.51 151.38 C 241.10 148.97 235.93 151.04 231.18 150.53 C 221.18 149.84 210.84 150.25 201.30 146.74 C 199.28 145.88 196.99 145.16 195.57 143.39 C 194.33 140.81 194.30 137.87 194.08 135.07 C 193.61 123.05 193.37 111.02 192.82 99.01 C 192.59 91.59 189.41 84.79 187.01 77.90 C 185.54 73.65 183.30 69.73 181.46 65.64 C 179.51 61.41 179.85 56.65 179.89 52.12 C 180.22 51.88 180.87 51.41 181.20 51.18 C 183.14 49.77 185.11 48.41 187.06 47.01 Z"
       id="path6" />
    <path
       fill="#18301f"
       opacity="1.00"
       d=" M 327.56 195.57 C 338.70 194.51 349.92 194.22 361.11 194.15 C 369.77 194.16 378.58 195.77 386.36 199.66 C 392.83 203.62 392.63 212.11 395.67 218.29 C 396.31 220.13 398.16 220.89 399.80 221.60 C 402.99 221.64 406.18 221.47 409.38 221.44 C 406.09 223.98 402.82 226.54 399.35 228.83 C 395.57 228.35 391.23 229.24 387.90 227.15 C 384.18 221.86 384.36 214.76 380.53 209.49 C 379.14 207.49 377.01 206.16 374.77 205.30 C 367.21 202.41 359.11 200.95 351.01 201.06 C 337.73 201.22 324.45 201.94 311.26 203.45 C 311.08 203.09 310.72 202.36 310.54 202.00 L 310.61 201.25 C 315.97 198.63 321.51 196.05 327.56 195.57 Z"
       id="path7" />
    <path
       fill="#18301f"
       opacity="1.00"
       d=" M 139.23 335.31 C 142.39 333.04 145.59 330.83 148.93 328.82 C 148.79 329.25 148.51 330.10 148.37 330.53 C 146.05 337.44 143.00 344.25 142.53 351.62 C 142.23 356.70 142.60 361.92 144.35 366.74 C 147.26 374.21 152.14 380.66 157.09 386.88 C 166.92 400.02 176.82 413.13 187.13 425.90 C 189.21 428.48 191.65 430.73 193.97 433.10 C 197.74 438.89 202.69 443.75 206.78 449.30 C 208.74 451.92 211.02 454.33 212.71 457.16 C 214.09 459.91 213.93 463.11 214.27 466.11 C 221.61 467.98 229.07 465.61 236.20 463.91 L 236.19 464.86 C 233.66 467.49 230.50 469.35 227.47 471.32 C 220.18 472.44 212.93 474.62 205.48 473.67 C 204.96 470.28 205.16 466.58 203.40 463.53 C 197.03 454.99 190.07 446.91 183.30 438.69 C 169.45 423.02 157.50 405.82 144.55 389.42 C 137.87 380.87 132.36 370.50 133.44 359.31 C 133.38 350.85 138.81 343.65 139.23 335.31 Z"
       id="path8" />
    <path
       fill="#18301f"
       opacity="1.00"
       d=" M 166.04 491.96 C 167.60 490.00 170.39 490.37 172.60 489.87 C 173.55 493.98 175.04 498.01 177.53 501.46 C 182.13 507.94 186.22 514.76 190.53 521.43 C 194.69 528.14 195.02 536.38 198.66 543.27 C 204.65 549.00 213.28 550.75 221.29 551.36 C 218.51 553.95 215.62 556.42 212.41 558.48 C 206.93 557.78 201.30 557.23 196.27 554.77 C 193.11 553.21 189.24 551.63 188.22 547.88 C 185.99 541.40 185.12 534.39 181.53 528.43 C 176.97 521.05 172.27 513.76 167.34 506.62 C 164.86 503.14 164.10 498.88 163.56 494.75 C 164.38 493.81 165.18 492.86 166.04 491.96 Z"
       id="path9" />
    <path
       fill="#18301f"
       opacity="1.00"
       d=" M 261.61 517.56 C 265.15 516.30 269.12 514.66 272.87 516.06 C 276.93 517.69 280.01 521.06 282.51 524.56 C 287.23 531.37 288.54 539.84 288.99 547.94 C 289.18 552.80 289.80 557.81 288.45 562.56 C 286.15 569.12 281.17 574.42 279.12 581.09 C 277.51 586.84 279.87 592.58 282.20 597.75 C 285.47 604.84 285.00 612.81 286.61 620.30 C 288.13 620.98 289.65 621.67 291.18 622.37 C 289.86 625.99 286.71 628.01 283.46 629.72 C 281.52 628.90 279.57 628.12 277.62 627.35 C 276.07 619.83 276.48 611.85 273.22 604.75 C 270.91 599.58 268.61 593.84 270.19 588.11 C 272.19 581.42 277.12 576.10 279.44 569.56 C 280.67 565.14 280.17 560.49 280.06 555.97 C 279.71 547.52 278.44 538.66 273.49 531.57 C 270.98 528.09 267.96 524.63 263.87 523.05 C 260.54 522.09 257.07 522.98 253.72 523.32 C 256.22 521.23 258.83 519.25 261.61 517.56 Z"
       id="path10" />
  </g>
  <g
     id="#25723bff">
    <path
       fill="#25723b"
       opacity="1.00"
       d=" M 184.75 21.81 C 186.66 19.78 188.50 16.51 191.80 17.66 C 191.57 25.56 192.97 33.37 194.17 41.14 C 192.30 42.61 190.56 44.24 188.71 45.73 C 188.30 46.05 187.47 46.69 187.06 47.01 C 186.22 38.61 184.67 30.28 184.75 21.81 Z"
       id="path11" />
    <path
       fill="#25723b"
       opacity="1.00"
       d=" M 407.76 39.07 C 409.95 37.34 412.35 35.86 415.00 34.92 C 410.01 41.48 405.13 48.74 404.20 57.14 C 403.60 60.85 406.28 63.92 409.25 65.69 C 420.28 72.47 432.55 76.91 444.81 80.86 C 444.29 82.30 443.85 83.79 443.10 85.14 C 441.73 85.78 440.29 86.20 438.87 86.67 C 425.88 80.96 411.47 77.76 400.12 68.86 C 395.82 65.40 397.14 59.40 398.99 54.99 C 400.84 49.35 405.20 45.02 407.25 39.48 L 407.76 39.07 Z"
       id="path12" />
    <path
       fill="#25723b"
       opacity="1.00"
       d=" M 173.03 56.25 C 175.36 54.96 177.71 53.67 179.89 52.12 C 179.85 56.65 179.51 61.41 181.46 65.64 C 183.30 69.73 185.54 73.65 187.01 77.90 C 189.41 84.79 192.59 91.59 192.82 99.01 C 193.37 111.02 193.61 123.05 194.08 135.07 C 194.30 137.87 194.33 140.81 195.57 143.39 C 196.99 145.16 199.28 145.88 201.30 146.74 C 210.84 150.25 221.18 149.84 231.18 150.53 C 235.93 151.04 241.10 148.97 245.51 151.38 C 244.66 152.16 243.82 152.95 242.98 153.75 C 239.25 153.87 235.52 154.10 231.81 154.46 C 227.63 154.80 223.48 155.43 219.30 155.68 C 209.80 154.34 199.56 154.95 190.96 150.08 C 187.31 148.19 187.37 143.58 187.06 140.04 C 186.76 127.10 186.33 114.15 185.63 101.22 C 184.03 91.65 180.08 82.59 176.07 73.81 C 173.18 68.79 172.89 62.94 171.93 57.37 C 172.21 57.09 172.75 56.53 173.03 56.25 Z"
       id="path13" />
    <path
       fill="#25723b"
       opacity="1.00"
       d=" M 32.61 79.60 C 36.06 75.17 40.87 71.69 46.10 69.75 C 45.33 70.72 44.59 71.71 43.84 72.70 C 37.26 76.82 32.43 83.08 28.69 89.78 C 26.14 94.03 28.36 99.05 29.73 103.31 C 30.51 106.16 32.81 108.08 35.24 109.57 C 34.41 110.63 33.64 111.74 32.86 112.84 C 31.64 113.42 30.41 113.99 29.21 114.62 C 26.67 113.35 23.83 111.93 23.05 108.93 C 21.55 104.52 19.23 99.33 21.75 94.87 C 24.60 89.27 28.90 84.62 32.61 79.60 Z"
       id="path14" />
    <path
       fill="#25723b"
       opacity="1.00"
       d=" M 43.08 102.53 C 43.84 102.49 45.35 102.41 46.10 102.37 C 46.19 105.63 46.43 108.88 46.78 112.11 C 48.18 112.83 49.57 113.55 50.96 114.28 C 50.78 114.74 50.43 115.66 50.25 116.12 C 48.26 117.25 46.28 118.40 44.30 119.54 C 42.98 118.85 41.66 118.16 40.34 117.48 C 39.56 114.45 39.46 110.95 37.08 108.65 C 40.03 107.71 41.92 105.29 43.08 102.53 Z"
       id="path15" />
    <path
       fill="#25723b"
       opacity="1.00"
       d=" M 141.14 184.35 C 143.66 182.34 146.28 180.46 148.97 178.68 C 148.07 181.95 146.41 185.12 146.36 188.57 C 149.11 193.79 155.68 194.22 160.88 193.68 C 172.57 192.52 184.35 193.41 196.02 192.04 C 203.09 191.23 210.20 190.81 217.29 190.30 C 219.86 189.97 222.28 190.96 224.53 192.08 C 216.31 193.36 208.28 195.84 199.98 196.59 C 192.92 196.13 185.94 197.44 178.91 197.70 C 169.22 198.29 159.35 197.14 149.84 199.56 C 146.11 196.67 141.40 195.63 136.78 195.31 C 137.35 195.22 138.50 195.05 139.08 194.97 C 139.95 191.46 140.81 187.95 141.14 184.35 Z"
       id="path16" />
    <path
       fill="#25723b"
       opacity="1.00"
       d=" M 311.26 203.45 C 324.45 201.94 337.73 201.22 351.01 201.06 C 359.11 200.95 367.21 202.41 374.77 205.30 C 377.01 206.16 379.14 207.49 380.53 209.49 C 384.36 214.76 384.18 221.86 387.90 227.15 C 391.23 229.24 395.57 228.35 399.35 228.83 C 397.06 230.43 394.77 232.03 392.48 233.64 C 388.66 233.36 384.37 234.17 380.92 232.17 C 376.52 225.82 377.32 216.33 370.55 211.54 C 361.10 207.01 350.39 205.64 340.00 206.04 C 329.97 206.39 319.93 206.70 309.96 207.85 C 310.08 205.89 310.34 203.95 310.54 202.00 C 310.72 202.36 311.08 203.09 311.26 203.45 Z"
       id="path17" />
    <path
       fill="#25723b"
       opacity="1.00"
       d=" M 94.39 212.57 C 96.52 211.29 98.61 209.94 100.65 208.52 C 101.98 211.63 103.41 214.75 105.63 217.35 C 112.42 225.52 119.95 233.26 128.91 239.06 C 133.14 241.88 138.44 240.99 143.15 240.23 C 148.83 239.16 154.60 238.50 160.19 237.03 C 174.82 232.55 190.18 231.43 205.11 228.30 C 215.25 227.33 225.42 225.57 235.64 226.35 C 236.60 229.90 237.41 233.50 237.83 237.15 C 240.20 257.73 242.55 278.30 245.19 298.84 C 247.86 316.79 248.37 334.96 250.25 352.99 C 252.01 377.08 253.84 401.16 255.65 425.25 C 257.48 438.22 257.03 451.32 257.40 464.38 C 254.95 465.92 252.60 467.61 250.11 469.08 C 250.15 456.09 250.51 443.04 248.68 430.14 C 246.34 400.08 244.35 369.99 241.74 339.96 C 240.05 311.97 235.47 284.29 232.51 256.43 C 231.36 248.05 231.08 239.50 228.60 231.36 C 218.41 230.45 208.24 232.28 198.12 233.28 C 188.06 235.45 177.80 236.43 167.72 238.55 C 159.06 239.83 150.86 243.18 142.15 244.20 C 135.57 244.98 128.15 247.94 122.03 243.99 C 112.57 238.04 104.79 229.82 97.72 221.26 C 95.59 218.85 94.97 215.62 94.39 212.57 Z"
       id="path18" />
    <path
       fill="#25723b"
       opacity="1.00"
       d=" M 326.35 251.86 C 328.61 250.15 330.97 248.54 333.67 247.61 C 336.06 255.03 339.16 262.20 341.45 269.66 C 348.61 287.64 355.20 306.43 354.92 326.05 C 354.91 333.78 352.72 341.24 350.85 348.67 C 348.92 357.11 346.40 365.42 343.54 373.60 C 340.15 383.02 332.74 389.99 326.60 397.61 C 323.22 401.85 318.90 405.42 316.59 410.43 C 314.90 412.47 313.01 414.34 311.05 416.12 C 310.69 415.20 310.35 414.28 310.03 413.37 C 314.59 408.78 318.62 403.72 322.83 398.83 C 328.03 392.90 333.54 386.94 336.33 379.43 C 340.59 367.44 343.75 355.10 346.63 342.72 C 349.27 330.84 347.55 318.52 345.27 306.73 C 340.35 287.99 332.70 270.14 326.35 251.86 Z"
       id="path19" />
    <path
       fill="#25723b"
       opacity="1.00"
       d=" M 133.88 338.88 C 135.64 337.66 137.44 336.50 139.23 335.31 C 138.81 343.65 133.38 350.85 133.44 359.31 C 132.36 370.50 137.87 380.87 144.55 389.42 C 157.50 405.82 169.45 423.02 183.30 438.69 C 190.07 446.91 197.03 454.99 203.40 463.53 C 205.16 466.58 204.96 470.28 205.48 473.67 C 212.93 474.62 220.18 472.44 227.47 471.32 C 225.12 473.16 222.76 475.00 220.19 476.52 C 212.96 477.22 205.87 479.69 198.53 478.67 C 197.97 475.07 198.23 471.05 196.04 467.94 C 190.11 460.25 183.85 452.80 177.74 445.25 C 163.38 429.08 150.90 411.38 137.61 394.36 C 133.69 389.37 130.33 383.88 128.15 377.90 C 125.75 370.54 125.90 362.46 128.12 355.08 C 129.77 349.59 132.01 344.30 133.88 338.88 Z"
       id="path20" />
    <path
       fill="#25723b"
       opacity="1.00"
       d=" M 155.79 499.11 C 158.25 497.44 160.74 495.78 163.56 494.75 C 164.10 498.88 164.86 503.14 167.34 506.62 C 172.27 513.76 176.97 521.05 181.53 528.43 C 185.12 534.39 185.99 541.40 188.22 547.88 C 189.24 551.63 193.11 553.21 196.27 554.77 C 201.30 557.23 206.93 557.78 212.41 558.48 C 209.84 560.39 207.22 562.23 204.54 563.98 C 197.80 562.19 190.61 561.24 184.68 557.32 C 182.66 556.20 181.68 554.03 181.03 551.94 C 179.00 545.48 177.87 538.60 174.17 532.80 C 169.96 526.35 166.09 519.67 161.57 513.42 C 158.45 509.21 157.15 504.08 155.79 499.11 Z"
       id="path21" />
    <path
       fill="#25723b"
       opacity="1.00"
       d=" M 55.94 503.55 C 57.22 501.25 59.38 498.82 62.31 499.80 C 58.79 511.82 54.81 524.32 57.03 536.99 C 57.34 541.35 60.28 544.73 62.91 547.95 C 57.80 555.76 59.81 565.35 59.67 574.11 C 58.22 567.38 59.04 560.48 58.93 553.66 C 58.23 553.62 56.85 553.53 56.15 553.49 C 53.88 550.46 51.39 547.40 50.47 543.65 C 47.67 530.04 51.71 516.39 55.94 503.55 Z"
       id="path22" />
    <path
       fill="#25723b"
       opacity="1.00"
       d=" M 253.72 523.32 C 257.07 522.98 260.54 522.09 263.87 523.05 C 267.96 524.63 270.98 528.09 273.49 531.57 C 278.44 538.66 279.71 547.52 280.06 555.97 C 280.17 560.49 280.67 565.14 279.44 569.56 C 277.12 576.10 272.19 581.42 270.19 588.11 C 268.61 593.84 270.91 599.58 273.22 604.75 C 276.48 611.85 276.07 619.83 277.62 627.35 C 279.57 628.12 281.52 628.90 283.46 629.72 C 281.20 631.72 278.79 633.53 276.28 635.21 C 274.05 633.74 270.59 632.89 270.27 629.78 C 268.99 623.60 269.39 617.05 266.81 611.17 C 264.50 605.77 261.79 600.03 263.02 593.99 C 264.66 586.58 270.51 580.99 272.65 573.78 C 273.69 568.24 273.09 562.54 272.86 556.95 C 272.26 546.58 268.33 535.64 259.57 529.44 C 256.54 527.09 252.57 527.43 249.00 527.72 C 250.56 526.24 252.10 524.73 253.72 523.32 Z"
       id="path23" />
    <path
       fill="#25723b"
       opacity="1.00"
       d=" M 76.93 539.82 C 78.63 536.43 79.08 532.58 79.59 528.88 C 80.72 538.18 79.37 547.55 80.31 556.84 C 80.71 561.81 86.57 562.89 90.33 564.56 C 89.26 567.68 86.83 569.84 83.58 570.39 C 80.51 568.43 77.04 567.08 74.27 564.70 C 73.09 562.71 73.14 560.29 72.99 558.06 C 72.87 552.61 73.07 547.17 73.12 541.73 C 74.40 541.12 75.80 540.69 76.93 539.82 Z"
       id="path24" />
    <path
       fill="#25723b"
       opacity="1.00"
       d=" M 417.99 540.08 C 419.10 539.34 420.26 538.65 421.38 537.90 C 422.17 540.14 422.55 542.85 424.69 544.29 C 427.66 546.55 430.90 548.46 433.69 550.98 C 431.39 552.70 429.16 554.51 426.71 556.01 C 422.40 551.86 415.48 549.80 414.35 543.16 C 415.56 542.13 416.74 541.07 417.99 540.08 Z"
       id="path25" />
  </g>
  <g
     id="#0f9c37ff">
    <path
       fill="#0f9c37"
       opacity="1.00"
       d=" M 178.45 27.82 C 179.22 25.20 181.70 20.54 184.75 21.81 C 184.67 30.28 186.22 38.61 187.06 47.01 C 185.11 48.41 183.14 49.77 181.20 51.18 C 180.24 43.40 178.91 35.65 178.45 27.82 Z"
       id="path26" />
  </g>
  <g
     id="#376449fe">
    <path
       fill="#376449"
       opacity="1.00"
       d=" M 429.35 23.43 C 435.47 21.78 441.07 26.15 445.13 30.22 C 445.27 30.66 445.55 31.53 445.69 31.97 C 443.99 35.03 441.66 37.71 439.29 40.27 C 437.02 42.74 433.89 44.92 433.65 48.56 L 432.81 48.51 C 433.11 46.16 433.38 43.80 433.64 41.44 C 429.22 40.88 424.75 39.80 420.28 40.36 C 417.50 41.23 415.73 43.82 413.94 45.96 C 415.60 39.93 418.96 34.58 422.78 29.70 C 424.73 27.43 426.38 24.47 429.35 23.43 Z"
       id="path27" />
  </g>
  <g
     id="#50c571fe">
    <path
       fill="#50c571"
       opacity="1.00"
       d=" M 170.67 31.79 C 172.81 29.55 174.84 26.10 178.45 27.82 C 178.91 35.65 180.24 43.40 181.20 51.18 C 180.87 51.41 180.22 51.88 179.89 52.12 C 177.71 53.67 175.36 54.96 173.03 56.25 C 172.25 48.10 170.30 40.03 170.67 31.79 Z"
       id="path28" />
  </g>
  <g
     id="#478559ff">
    <path
       fill="#478559"
       opacity="1.00"
       d=" M 214.46 29.87 C 215.08 29.84 216.33 29.79 216.95 29.76 C 220.99 33.90 223.87 39.05 225.39 44.63 C 226.30 48.53 229.64 51.12 231.09 54.77 C 220.65 56.11 210.11 56.76 199.74 58.69 C 200.17 56.88 200.37 54.96 201.30 53.31 C 203.28 50.25 208.19 51.07 209.98 47.95 C 209.06 45.30 206.60 42.89 207.38 39.90 C 207.81 37.51 209.43 35.63 210.86 33.76 C 212.07 33.87 213.29 33.98 214.51 34.06 C 214.48 32.66 214.49 31.27 214.46 29.87 Z"
       id="path29" />
  </g>
  <g
     id="#18311fff">
    <path
       fill="#18311f"
       opacity="1.00"
       d=" M 415.00 34.92 C 416.89 32.29 419.60 30.39 422.78 29.70 C 418.96 34.58 415.60 39.93 413.94 45.96 C 413.04 49.21 412.43 53.33 415.05 55.98 C 418.43 59.49 423.05 61.39 427.25 63.70 C 435.01 67.46 443.18 70.35 451.38 72.98 C 451.70 76.22 451.58 79.66 448.59 81.65 C 447.32 81.39 446.06 81.15 444.81 80.86 C 432.55 76.91 420.28 72.47 409.25 65.69 C 406.28 63.92 403.60 60.85 404.20 57.14 C 405.13 48.74 410.01 41.48 415.00 34.92 Z"
       id="path30" />
    <path
       fill="#18311f"
       opacity="1.00"
       d=" M 28.69 89.78 C 32.43 83.08 37.26 76.82 43.84 72.70 C 41.59 77.26 37.80 81.14 36.50 86.11 C 36.72 92.08 38.77 98.25 43.08 102.53 C 41.92 105.29 40.03 107.71 37.08 108.65 C 36.62 108.88 35.70 109.34 35.24 109.57 C 32.81 108.08 30.51 106.16 29.73 103.31 C 28.36 99.05 26.14 94.03 28.69 89.78 Z"
       id="path31" />
    <path
       fill="#18311f"
       opacity="1.00"
       d=" M 50.15 99.13 C 52.50 95.77 50.83 90.71 53.99 87.78 C 54.32 87.99 54.99 88.40 55.32 88.61 C 56.02 94.42 54.87 100.32 56.02 106.12 C 58.70 106.20 61.58 106.43 63.95 104.89 C 67.71 103.16 71.40 99.28 75.85 100.91 C 74.97 103.89 75.00 108.77 71.00 109.15 C 70.39 109.02 69.19 108.74 68.59 108.60 C 66.92 108.19 65.28 107.46 63.54 107.55 C 60.69 108.26 58.32 110.10 55.82 111.55 C 54.22 112.50 52.59 113.39 50.96 114.28 C 49.57 113.55 48.18 112.83 46.78 112.11 C 46.43 108.88 46.19 105.63 46.10 102.37 C 47.50 101.35 48.97 100.40 50.15 99.13 Z"
       id="path32" />
    <path
       fill="#18311f"
       opacity="1.00"
       d=" M 148.97 178.68 C 151.90 176.68 154.91 174.78 157.80 172.72 C 156.75 176.16 153.28 181.05 157.20 183.83 C 161.31 187.50 167.18 186.81 172.25 186.51 C 182.21 185.59 192.24 186.28 202.20 185.29 C 207.14 184.89 212.05 184.22 217.00 183.94 C 222.17 183.64 227.41 182.64 232.55 183.86 C 232.02 185.81 231.75 187.89 230.73 189.68 C 229.02 191.17 226.67 191.54 224.53 192.08 C 222.28 190.96 219.86 189.97 217.29 190.30 C 210.20 190.81 203.09 191.23 196.02 192.04 C 184.35 193.41 172.57 192.52 160.88 193.68 C 155.68 194.22 149.11 193.79 146.36 188.57 C 146.41 185.12 148.07 181.95 148.97 178.68 Z"
       id="path33" />
    <path
       fill="#18311f"
       opacity="1.00"
       d=" M 100.65 208.52 C 103.52 206.19 106.64 204.15 110.11 202.82 C 111.42 205.43 112.75 208.07 114.63 210.33 C 121.55 218.72 129.34 226.55 138.54 232.42 C 142.34 234.89 147.03 234.07 151.23 233.41 C 159.36 232.07 167.53 230.84 175.40 228.32 C 184.91 226.09 194.58 224.61 204.24 223.17 C 210.77 221.82 217.33 220.54 224.02 220.21 C 230.79 219.86 237.68 218.24 244.41 219.60 C 247.51 227.46 247.11 236.20 248.68 244.44 C 250.79 269.02 255.06 293.37 257.01 317.96 C 257.60 330.66 259.26 343.28 259.95 355.97 C 261.63 376.73 262.92 397.53 264.80 418.28 C 265.93 429.83 266.40 441.45 266.28 453.05 C 266.41 456.57 264.87 459.88 262.10 462.04 C 260.53 462.82 258.93 463.54 257.40 464.38 C 257.03 451.32 257.48 438.22 255.65 425.25 C 253.84 401.16 252.01 377.08 250.25 352.99 C 248.37 334.96 247.86 316.79 245.19 298.84 C 242.55 278.30 240.20 257.73 237.83 237.15 C 237.41 233.50 236.60 229.90 235.64 226.35 C 225.42 225.57 215.25 227.33 205.11 228.30 C 190.18 231.43 174.82 232.55 160.19 237.03 C 154.60 238.50 148.83 239.16 143.15 240.23 C 138.44 240.99 133.14 241.88 128.91 239.06 C 119.95 233.26 112.42 225.52 105.63 217.35 C 103.41 214.75 101.98 211.63 100.65 208.52 Z"
       id="path34" />
    <path
       fill="#18311f"
       opacity="1.00"
       d=" M 337.03 244.02 C 339.04 243.15 341.29 243.19 343.44 242.90 C 344.78 248.41 347.42 253.48 349.05 258.90 C 350.83 264.84 353.71 270.36 355.63 276.24 C 358.30 284.80 361.43 293.27 362.61 302.20 C 363.59 309.81 364.25 317.49 363.87 325.17 C 362.72 330.45 361.29 335.66 360.02 340.91 C 358.25 349.74 354.99 358.16 352.76 366.87 C 349.83 372.93 346.08 378.58 341.58 383.59 C 333.53 392.79 326.13 402.67 316.59 410.43 C 318.90 405.42 323.22 401.85 326.60 397.61 C 332.74 389.99 340.15 383.02 343.54 373.60 C 346.40 365.42 348.92 357.11 350.85 348.67 C 352.72 341.24 354.91 333.78 354.92 326.05 C 355.20 306.43 348.61 287.64 341.45 269.66 C 339.16 262.20 336.06 255.03 333.67 247.61 C 334.75 246.38 335.76 245.06 337.03 244.02 Z"
       id="path35" />
    <path
       fill="#18311f"
       opacity="1.00"
       d=" M 62.31 499.80 C 63.75 496.60 66.69 493.07 70.56 495.11 C 68.45 503.60 65.46 512.03 65.47 520.87 C 65.46 527.12 65.80 533.92 69.89 539.01 C 69.42 541.85 68.92 544.68 68.40 547.52 C 66.87 547.75 65.35 547.99 63.81 548.18 L 62.91 547.95 C 60.28 544.73 57.34 541.35 57.03 536.99 C 54.81 524.32 58.79 511.82 62.31 499.80 Z"
       id="path36" />
    <path
       fill="#18311f"
       opacity="1.00"
       d=" M 80.05 509.07 C 80.41 507.52 82.17 507.48 83.37 506.95 C 85.28 511.63 87.66 516.19 88.54 521.21 C 90.02 530.97 88.16 540.90 89.46 550.66 C 90.04 554.67 94.78 555.39 97.87 556.78 C 96.95 559.37 96.44 562.35 94.25 564.24 C 93.02 564.76 91.63 564.66 90.33 564.56 C 86.57 562.89 80.71 561.81 80.31 556.84 C 79.37 547.55 80.72 538.18 79.59 528.88 C 79.28 522.30 78.04 515.48 80.05 509.07 Z"
       id="path37" />
    <path
       fill="#18311f"
       opacity="1.00"
       d=" M 416.32 508.77 C 416.39 509.15 416.51 509.92 416.57 510.31 C 417.44 514.03 420.28 516.74 423.59 518.44 C 428.26 521.60 434.02 521.72 439.43 522.31 C 438.39 527.55 430.52 528.13 430.90 533.83 C 433.25 538.15 437.96 540.60 442.30 542.55 C 441.90 543.77 441.52 544.99 441.15 546.23 C 438.56 547.65 436.14 549.34 433.69 550.98 C 430.90 548.46 427.66 546.55 424.69 544.29 C 422.55 542.85 422.17 540.14 421.38 537.90 C 422.02 537.45 423.29 536.55 423.93 536.10 C 426.56 534.31 429.64 532.66 430.42 529.29 C 423.02 529.08 415.39 527.37 409.91 522.06 C 407.55 520.33 408.50 517.19 408.55 514.73 C 411.27 512.91 413.82 510.86 416.32 508.77 Z"
       id="path38" />
  </g>
  <g
     id="#0408030b" />
  <g
     id="#3a684cff">
    <path
       fill="#3a684c"
       opacity="1.00"
       d=" M 203.22 31.81 C 204.07 35.00 206.57 38.49 204.75 41.79 C 202.43 46.19 199.86 50.47 198.11 55.15 C 196.02 55.74 193.92 56.32 191.83 56.90 C 191.53 57.42 190.94 58.45 190.64 58.97 C 188.63 54.86 188.79 50.19 188.71 45.73 C 190.56 44.24 192.30 42.61 194.17 41.14 C 196.80 39.71 199.56 38.56 202.30 37.35 C 202.63 35.50 202.96 33.66 203.22 31.81 Z"
       id="path40" />
  </g>
  <g
     id="#109d38ff">
    <path
       fill="#109d38"
       opacity="1.00"
       d=" M 400.99 44.77 C 403.02 42.93 405.05 41.11 407.25 39.48 C 405.20 45.02 400.84 49.35 398.99 54.99 C 397.14 59.40 395.82 65.40 400.12 68.86 C 411.47 77.76 425.88 80.96 438.87 86.67 C 438.07 87.67 437.30 88.70 436.40 89.60 C 434.43 90.10 432.38 89.70 430.44 89.35 C 418.85 85.65 407.31 81.39 396.85 75.10 C 393.97 73.38 390.96 70.71 391.18 67.03 C 391.56 58.67 396.56 51.53 400.99 44.77 Z"
       id="path41" />
    <path
       fill="#109d38"
       opacity="1.00"
       d=" M 22.45 88.07 C 26.03 85.41 27.48 79.60 32.61 79.60 C 28.90 84.62 24.60 89.27 21.75 94.87 C 19.23 99.33 21.55 104.52 23.05 108.93 C 23.83 111.93 26.67 113.35 29.21 114.62 C 27.97 115.37 26.76 116.19 25.52 116.95 C 24.00 117.81 22.29 118.28 20.67 118.93 C 17.30 113.79 14.11 107.91 14.64 101.58 C 16.30 96.61 19.83 92.55 22.45 88.07 Z"
       id="path42" />
    <path
       fill="#109d38"
       opacity="1.00"
       d=" M 393.54 525.37 C 396.24 523.17 398.79 520.77 401.72 518.87 L 402.34 518.47 C 402.02 521.05 400.22 524.32 402.44 526.49 C 406.10 529.98 410.75 532.65 415.84 533.24 C 418.72 533.58 421.58 534.30 423.93 536.10 C 423.29 536.55 422.02 537.45 421.38 537.90 C 420.26 538.65 419.10 539.34 417.99 540.08 C 416.05 538.54 413.72 537.70 411.27 537.55 C 403.78 536.96 396.42 532.50 393.54 525.37 Z"
       id="path43" />
  </g>
  <g
     id="#50c471fc">
    <path
       fill="#50c471"
       opacity="1.00"
       d=" M 395.96 47.94 C 397.32 46.44 399.25 45.72 400.99 44.77 C 396.56 51.53 391.56 58.67 391.18 67.03 C 390.96 70.71 393.97 73.38 396.85 75.10 C 407.31 81.39 418.85 85.65 430.44 89.35 C 430.88 92.29 429.88 96.95 425.97 96.21 C 413.03 92.78 400.42 87.84 388.80 81.17 C 386.04 79.35 382.86 76.74 383.25 73.05 C 383.61 63.27 389.77 55.03 395.96 47.94 Z"
       id="path44" />
  </g>
  <g
     id="#4e9161ff">
    <path
       fill="#4e9161"
       opacity="1.00"
       d=" M 199.74 58.69 C 210.11 56.76 220.65 56.11 231.09 54.77 C 233.18 60.30 234.46 66.17 233.93 72.11 C 231.76 72.96 229.10 73.84 228.57 76.45 C 224.99 85.32 228.33 94.65 230.56 103.38 C 231.74 107.58 230.69 111.95 228.62 115.67 C 228.04 115.67 226.88 115.69 226.30 115.69 C 222.26 108.07 221.34 99.06 216.03 92.08 C 210.69 80.91 203.74 70.46 199.74 58.69 Z"
       id="path45" />
    <path
       fill="#4e9161"
       opacity="1.00"
       d=" M 291.93 158.71 C 297.59 158.33 303.12 156.52 308.83 156.87 C 309.35 171.43 309.28 186.07 307.32 200.52 C 305.70 207.66 305.13 214.95 304.27 222.20 C 301.69 215.69 304.18 208.42 301.15 202.04 C 296.42 205.03 289.55 207.62 289.17 214.11 C 288.89 222.75 291.89 231.37 290.00 240.01 C 289.38 242.51 289.16 246.50 285.89 246.84 C 280.37 247.77 274.72 248.47 269.12 248.21 C 267.39 248.09 267.78 245.94 267.85 244.74 C 268.67 238.29 269.35 231.80 269.03 225.29 C 269.49 219.78 268.53 214.04 264.39 210.06 C 262.92 211.01 261.42 211.93 259.95 212.89 C 256.21 201.30 256.16 188.88 252.05 177.42 C 252.02 175.35 251.97 173.28 251.89 171.21 C 254.42 164.43 262.08 162.40 268.53 161.52 C 276.34 160.66 284.09 159.28 291.93 158.71 Z"
       id="path46" />
  </g>
  <g
     id="#386549ff">
    <path
       fill="#386549"
       opacity="1.00"
       d=" M 55.50 64.00 C 56.83 61.14 58.61 57.67 62.20 57.44 C 64.38 57.47 68.12 56.30 68.75 59.30 C 69.64 63.17 69.65 67.23 71.10 70.98 C 75.85 69.91 78.24 65.33 82.17 62.95 C 85.53 61.60 87.54 65.41 89.98 66.98 C 92.21 69.09 96.11 70.61 96.40 73.96 C 93.85 80.14 86.39 82.71 84.31 89.17 C 83.97 93.38 85.45 98.70 81.67 101.77 C 79.68 102.06 77.75 101.42 75.85 100.91 C 71.40 99.28 67.71 103.16 63.95 104.89 C 61.58 106.43 58.70 106.20 56.02 106.12 C 54.87 100.32 56.02 94.42 55.32 88.61 C 54.99 88.40 54.32 87.99 53.99 87.78 C 50.83 90.71 52.50 95.77 50.15 99.13 C 48.97 100.40 47.50 101.35 46.10 102.37 C 45.35 102.41 43.84 102.49 43.08 102.53 C 38.77 98.25 36.72 92.08 36.50 86.11 C 37.80 81.14 41.59 77.26 43.84 72.70 C 44.59 71.71 45.33 70.72 46.10 69.75 C 48.00 68.06 49.56 65.05 52.43 65.29 C 53.55 65.34 55.12 65.33 55.50 64.00 Z"
       id="path47" />
    <path
       fill="#386549"
       opacity="1.00"
       d=" M 431.42 486.28 C 433.21 483.66 435.43 481.37 437.94 479.42 C 439.53 479.97 441.14 480.52 442.75 481.08 C 444.29 483.21 445.77 486.36 448.97 485.74 C 453.96 486.26 460.16 483.24 464.23 487.13 C 465.13 490.87 464.95 495.29 462.67 498.54 C 460.82 499.55 458.71 499.94 456.74 500.63 C 460.54 504.83 464.98 509.11 470.94 509.64 C 474.75 509.84 476.10 513.91 476.60 517.09 C 476.98 519.32 476.53 522.05 474.51 523.36 C 472.51 524.08 470.38 524.32 468.28 524.43 C 465.33 524.62 462.31 524.62 459.48 525.54 C 456.95 526.41 456.13 529.23 454.93 531.34 C 456.72 531.75 458.51 532.18 460.31 532.60 C 459.44 535.37 456.41 535.81 454.41 537.45 C 451.67 539.92 447.64 540.37 445.39 543.49 C 444.36 543.16 443.33 542.85 442.30 542.55 C 437.96 540.60 433.25 538.15 430.90 533.83 C 430.52 528.13 438.39 527.55 439.43 522.31 C 434.02 521.72 428.26 521.60 423.59 518.44 C 420.28 516.74 417.44 514.03 416.57 510.31 C 418.83 507.89 421.09 505.47 423.64 503.36 C 426.26 501.12 429.45 499.38 431.38 496.46 C 432.06 493.11 431.57 489.66 431.42 486.28 M 440.16 506.86 C 440.14 507.68 440.11 509.32 440.10 510.14 C 442.44 510.33 444.81 510.09 446.37 508.12 C 444.45 507.06 442.30 506.83 440.16 506.86 Z"
       id="path48" />
    <path
       fill="#386549"
       opacity="1.00"
       d=" M 96.02 492.18 C 97.96 489.48 99.65 484.15 103.88 485.65 C 107.77 487.72 110.99 490.83 113.59 494.36 C 112.93 502.60 109.08 509.99 106.93 517.83 C 105.89 525.49 106.50 533.29 106.22 541.00 C 105.95 546.10 107.45 551.85 104.30 556.34 C 103.00 558.63 99.85 557.32 97.87 556.78 C 94.78 555.39 90.04 554.67 89.46 550.66 C 88.16 540.90 90.02 530.97 88.54 521.21 C 87.66 516.19 85.28 511.63 83.37 506.95 C 82.17 507.48 80.41 507.52 80.05 509.07 C 78.04 515.48 79.28 522.30 79.59 528.88 C 79.08 532.58 78.63 536.43 76.93 539.82 C 75.80 540.69 74.40 541.12 73.12 541.73 C 72.04 540.82 70.94 539.94 69.89 539.01 C 65.80 533.92 65.46 527.12 65.47 520.87 C 65.46 512.03 68.45 503.60 70.56 495.11 C 71.77 492.32 72.96 488.79 76.01 487.58 C 81.88 486.88 85.28 493.09 87.73 497.47 C 87.98 498.03 88.48 499.15 88.73 499.71 C 89.71 499.82 90.70 499.92 91.68 500.04 C 93.12 497.41 94.52 494.77 96.02 492.18 Z"
       id="path49" />
  </g>
  <g
     id="#0f9d37ff">
    <path
       fill="#0f9d37"
       opacity="1.00"
       d=" M 166.54 61.62 C 168.40 60.28 170.24 58.92 171.93 57.37 C 172.89 62.94 173.18 68.79 176.07 73.81 C 180.08 82.59 184.03 91.65 185.63 101.22 C 186.33 114.15 186.76 127.10 187.06 140.04 C 187.37 143.58 187.31 148.19 190.96 150.08 C 199.56 154.95 209.80 154.34 219.30 155.68 C 211.35 156.75 203.38 157.71 195.37 158.17 C 191.14 156.75 186.68 155.58 182.99 152.98 C 181.44 150.65 181.48 147.69 181.16 145.00 C 180.26 130.97 181.08 116.83 179.21 102.85 C 178.12 96.81 175.46 91.21 173.45 85.45 C 171.49 79.91 167.70 75.01 167.06 69.04 C 166.75 66.58 166.66 64.10 166.54 61.62 Z"
       id="path50" />
    <path
       fill="#0f9d37"
       opacity="1.00"
       d=" M 93.77 212.91 L 94.39 212.57 C 94.97 215.62 95.59 218.85 97.72 221.26 C 104.79 229.82 112.57 238.04 122.03 243.99 C 128.15 247.94 135.57 244.98 142.15 244.20 C 150.86 243.18 159.06 239.83 167.72 238.55 C 177.80 236.43 188.06 235.45 198.12 233.28 C 208.24 232.28 218.41 230.45 228.60 231.36 C 231.08 239.50 231.36 248.05 232.51 256.43 C 235.47 284.29 240.05 311.97 241.74 339.96 C 244.35 369.99 246.34 400.08 248.68 430.14 C 250.51 443.04 250.15 456.09 250.11 469.08 C 248.23 470.19 246.36 471.30 244.47 472.39 C 244.34 468.01 244.00 463.60 244.56 459.24 C 245.24 456.21 245.19 453.08 244.13 450.14 C 241.23 419.80 239.47 389.37 236.98 358.99 C 235.43 343.99 234.97 328.90 233.07 313.94 C 229.96 291.39 227.54 268.75 224.81 246.15 C 224.38 242.50 223.59 238.90 222.66 235.34 C 212.45 234.67 202.26 236.24 192.12 237.27 C 176.93 240.50 161.28 241.59 146.40 246.21 C 141.05 247.58 135.56 248.21 130.15 249.23 C 125.45 249.98 120.15 250.87 115.92 248.06 C 106.59 241.96 98.72 233.89 91.75 225.25 C 90.12 223.19 88.97 220.82 87.81 218.49 C 89.48 216.32 91.27 214.15 93.77 212.91 Z"
       id="path51" />
    <path
       fill="#0f9d37"
       opacity="1.00"
       d=" M 320.79 257.72 C 321.92 255.14 323.84 253.14 326.35 251.86 C 332.70 270.14 340.35 287.99 345.27 306.73 C 347.55 318.52 349.27 330.84 346.63 342.72 C 343.75 355.10 340.59 367.44 336.33 379.43 C 333.54 386.94 328.03 392.90 322.83 398.83 C 318.62 403.72 314.59 408.78 310.03 413.37 C 309.85 412.80 309.50 411.68 309.33 411.12 C 317.68 401.43 327.98 392.43 331.63 379.72 C 333.44 373.51 335.55 367.37 337.06 361.07 C 339.14 352.15 342.09 343.28 341.92 334.02 C 341.74 322.21 339.85 310.38 335.83 299.26 C 333.81 291.98 330.94 284.99 328.22 277.96 C 326.09 271.08 323.39 264.42 320.79 257.72 Z"
       id="path52" />
    <path
       fill="#0f9d37"
       opacity="1.00"
       d=" M 150.51 504.95 C 151.87 502.67 153.33 500.35 155.79 499.11 C 157.15 504.08 158.45 509.21 161.57 513.42 C 166.09 519.67 169.96 526.35 174.17 532.80 C 177.87 538.60 179.00 545.48 181.03 551.94 C 181.68 554.03 182.66 556.20 184.68 557.32 C 190.61 561.24 197.80 562.19 204.54 563.98 C 202.57 565.28 200.50 566.44 198.66 567.95 C 191.22 566.12 183.10 565.06 177.03 559.94 C 173.98 555.60 173.64 550.02 171.85 545.13 C 170.15 538.84 166.02 533.73 162.75 528.24 C 158.42 520.60 151.44 514.13 150.51 504.95 Z"
       id="path53" />
    <path
       fill="#0f9d37"
       opacity="1.00"
       d=" M 249.00 527.72 C 252.57 527.43 256.54 527.09 259.57 529.44 C 268.33 535.64 272.26 546.58 272.86 556.95 C 273.09 562.54 273.69 568.24 272.65 573.78 C 270.51 580.99 264.66 586.58 263.02 593.99 C 261.79 600.03 264.50 605.77 266.81 611.17 C 269.39 617.05 268.99 623.60 270.27 629.78 C 270.59 632.89 274.05 633.74 276.28 635.21 C 274.10 636.57 271.72 637.55 269.37 638.57 C 267.78 637.79 266.21 637.01 264.62 636.25 C 263.03 628.77 263.47 620.82 260.22 613.75 C 257.92 608.57 255.53 602.84 257.15 597.10 C 259.28 590.17 264.52 584.67 266.70 577.77 C 267.84 572.25 267.05 566.57 266.79 561.00 C 266.23 551.73 263.32 542.11 256.31 535.66 C 253.53 532.73 249.55 531.64 245.78 530.65 C 246.87 529.69 247.94 528.71 249.00 527.72 Z"
       id="path54" />
    <path
       fill="#0f9d37"
       opacity="1.00"
       d=" M 69.89 539.01 C 70.94 539.94 72.04 540.82 73.12 541.73 C 73.07 547.17 72.87 552.61 72.99 558.06 C 73.14 560.29 73.09 562.71 74.27 564.70 C 77.04 567.08 80.51 568.43 83.58 570.39 C 82.13 573.23 79.32 574.39 76.35 573.10 C 73.11 571.62 68.16 570.81 67.44 566.66 C 66.61 560.87 67.24 554.98 66.86 549.15 C 65.85 548.81 64.83 548.49 63.81 548.18 C 65.35 547.99 66.87 547.75 68.40 547.52 C 68.92 544.68 69.42 541.85 69.89 539.01 Z"
       id="path55" />
  </g>
  <g
     id="#050b040f" />
  <g
     id="#50c672fe">
    <path
       fill="#50c672"
       opacity="1.00"
       d=" M 158.71 70.93 C 158.31 66.14 163.48 64.20 166.54 61.62 C 166.66 64.10 166.75 66.58 167.06 69.04 C 167.70 75.01 171.49 79.91 173.45 85.45 C 175.46 91.21 178.12 96.81 179.21 102.85 C 181.08 116.83 180.26 130.97 181.16 145.00 C 181.48 147.69 181.44 150.65 182.99 152.98 C 186.68 155.58 191.14 156.75 195.37 158.17 C 191.89 158.88 188.45 159.82 184.96 160.47 C 183.35 160.78 181.74 161.08 180.13 161.33 C 177.57 160.46 174.08 159.63 173.82 156.37 C 171.80 141.99 173.07 127.40 171.67 112.96 C 171.68 105.81 168.06 99.48 166.00 92.81 C 163.65 85.47 157.97 79.07 158.71 70.93 Z"
       id="path58" />
    <path
       fill="#50c672"
       opacity="1.00"
       d=" M 310.12 211.09 C 327.79 210.81 346.46 207.39 363.17 214.92 C 368.21 217.13 370.01 222.76 371.36 227.63 C 372.42 230.71 372.94 234.33 375.47 236.62 C 378.95 237.91 382.78 237.48 386.42 237.87 C 383.72 239.82 380.97 241.72 377.93 243.11 C 374.31 243.26 369.93 244.65 366.87 242.11 C 362.85 236.71 363.59 229.07 359.09 223.93 C 356.52 220.62 352.22 219.78 348.46 218.57 C 336.11 214.52 322.99 216.95 310.27 216.45 C 310.32 214.66 310.22 212.87 310.12 211.09 Z"
       id="path59" />
    <path
       fill="#50c672"
       opacity="1.00"
       d=" M 81.64 221.55 C 83.20 219.77 85.69 219.29 87.81 218.49 C 88.97 220.82 90.12 223.19 91.75 225.25 C 98.72 233.89 106.59 241.96 115.92 248.06 C 120.15 250.87 125.45 249.98 130.15 249.23 C 135.56 248.21 141.05 247.58 146.40 246.21 C 161.28 241.59 176.93 240.50 192.12 237.27 C 202.26 236.24 212.45 234.67 222.66 235.34 C 223.59 238.90 224.38 242.50 224.81 246.15 C 227.54 268.75 229.96 291.39 233.07 313.94 C 234.97 328.90 235.43 343.99 236.98 358.99 C 239.47 389.37 241.23 419.80 244.13 450.14 C 242.45 448.37 240.71 446.66 238.95 444.98 C 235.32 440.76 236.25 434.95 235.00 429.93 C 234.42 427.69 231.56 427.82 229.81 427.05 C 230.75 427.21 232.63 427.52 233.57 427.67 C 232.44 407.82 230.49 388.01 229.32 368.16 C 228.75 362.45 228.24 356.73 227.71 351.02 C 226.55 326.23 222.39 301.72 219.74 277.06 C 218.02 265.16 217.64 253.03 214.73 241.33 C 205.03 240.85 195.39 242.14 185.75 242.93 C 181.96 243.30 178.32 244.39 174.66 245.37 C 165.98 245.80 157.58 248.08 149.03 249.36 C 143.32 250.35 137.97 252.85 132.18 253.48 C 124.25 254.45 116.03 257.53 108.16 254.63 C 102.63 249.91 96.50 245.84 91.61 240.40 C 88.66 237.32 86.17 233.84 83.25 230.73 C 80.92 228.36 79.68 224.53 81.64 221.55 Z"
       id="path60" />
    <path
       fill="#50c672"
       opacity="1.00"
       d=" M 126.44 344.54 C 125.62 351.63 121.61 357.87 120.80 364.96 C 120.04 370.88 120.32 377.07 122.34 382.74 C 126.34 392.91 133.91 400.98 140.22 409.72 C 150.13 422.44 159.54 435.59 170.31 447.63 C 176.93 455.71 183.66 463.69 190.02 471.97 C 192.19 475.07 191.84 479.09 192.42 482.67 C 199.88 483.61 207.16 481.52 214.43 480.21 C 209.98 485.71 202.42 486.87 195.88 488.20 C 192.94 487.85 190.07 486.92 187.48 485.50 C 185.00 484.29 184.26 481.42 182.92 479.23 C 181.07 476.43 178.56 474.13 176.70 471.32 C 173.30 466.14 168.65 461.96 165.01 456.96 C 162.93 454.11 160.49 451.55 158.11 448.94 C 145.14 433.11 132.93 416.68 120.61 400.34 C 117.25 394.86 113.70 389.21 112.71 382.74 C 112.23 377.01 112.14 371.11 113.88 365.57 C 116.76 357.95 118.47 348.62 126.44 344.54 Z"
       id="path61" />
    <path
       fill="#50c672"
       opacity="1.00"
       d=" M 236.20 463.91 C 239.11 462.58 241.81 460.87 244.56 459.24 C 244.00 463.60 244.34 468.01 244.47 472.39 C 241.87 473.87 239.13 475.07 236.42 476.30 C 236.40 472.49 236.28 468.67 236.19 464.86 L 236.20 463.91 Z"
       id="path62" />
    <path
       fill="#50c672"
       opacity="1.00"
       d=" M 144.48 507.41 C 145.59 505.16 148.43 505.46 150.51 504.95 C 151.44 514.13 158.42 520.60 162.75 528.24 C 166.02 533.73 170.15 538.84 171.85 545.13 C 173.64 550.02 173.98 555.60 177.03 559.94 C 183.10 565.06 191.22 566.12 198.66 567.95 C 196.56 569.75 194.56 572.06 191.66 572.47 C 185.81 573.38 179.77 572.20 174.61 569.35 C 172.21 567.93 168.91 567.13 167.83 564.26 C 165.51 558.58 164.79 552.38 162.27 546.76 C 160.62 542.37 157.26 538.97 155.05 534.88 C 152.01 529.14 147.60 524.26 144.58 518.51 C 142.75 515.14 142.77 510.81 144.48 507.41 Z"
       id="path63" />
    <path
       fill="#50c672"
       opacity="1.00"
       d=" M 237.81 537.29 C 240.40 535.00 243.14 532.88 245.78 530.65 C 249.55 531.64 253.53 532.73 256.31 535.66 C 263.32 542.11 266.23 551.73 266.79 561.00 C 267.05 566.57 267.84 572.25 266.70 577.77 C 264.52 584.67 259.28 590.17 257.15 597.10 C 255.53 602.84 257.92 608.57 260.22 613.75 C 263.47 620.82 263.03 628.77 264.62 636.25 C 266.21 637.01 267.78 637.79 269.37 638.57 C 268.62 640.06 267.85 641.54 267.07 643.02 C 263.73 643.29 259.37 644.95 256.77 642.00 C 255.22 637.89 255.68 633.40 254.86 629.15 C 254.25 620.35 246.96 613.04 248.85 603.93 C 251.23 594.88 259.94 587.96 259.33 578.06 C 258.92 568.22 258.96 557.79 254.00 548.95 C 250.57 543.08 245.23 537.03 237.81 537.29 Z"
       id="path64" />
  </g>
  <g
     id="#152a1ca7">
    <path
       fill="#152a1c"
       opacity="0.65"
       d=" M 52.43 65.29 C 51.98 63.78 54.64 62.85 55.50 64.00 C 55.12 65.33 53.55 65.34 52.43 65.29 Z"
       id="path65" />
  </g>
  <g
     id="#4fc471fc">
    <path
       fill="#4fc471"
       opacity="1.00"
       d=" M 6.51 106.93 C 10.68 99.93 14.90 91.87 22.45 88.07 C 19.83 92.55 16.30 96.61 14.64 101.58 C 14.11 107.91 17.30 113.79 20.67 118.93 C 21.29 120.16 20.50 121.74 19.40 122.43 C 17.09 124.21 14.00 123.58 11.30 123.57 C 8.69 118.43 6.18 112.81 6.51 106.93 Z"
       id="path66" />
    <path
       fill="#4fc471"
       opacity="1.00"
       d=" M 29.21 114.62 C 30.41 113.99 31.64 113.42 32.86 112.84 C 33.28 115.94 33.68 119.05 34.14 122.14 C 37.78 122.63 41.29 121.54 44.30 119.54 C 46.28 118.40 48.26 117.25 50.25 116.12 C 51.71 116.58 53.16 117.06 54.64 117.47 C 53.79 119.85 53.52 124.44 49.93 123.84 C 47.54 123.95 45.46 122.37 43.11 122.39 C 38.60 123.25 35.29 126.84 31.02 128.31 C 29.20 128.79 26.83 128.80 25.85 126.86 C 25.00 123.63 25.52 120.25 25.52 116.95 C 26.76 116.19 27.97 115.37 29.21 114.62 Z"
       id="path67" />
    <path
       fill="#4fc471"
       opacity="1.00"
       d=" M 128.01 195.29 C 130.46 192.56 133.27 190.19 136.18 187.97 C 135.27 190.46 134.25 192.89 133.13 195.29 C 131.42 195.27 129.72 195.24 128.01 195.29 Z"
       id="path68" />
    <path
       fill="#4fc471"
       opacity="1.00"
       d=" M 387.52 531.57 C 388.96 529.03 391.33 527.21 393.54 525.37 C 396.42 532.50 403.78 536.96 411.27 537.55 C 413.72 537.70 416.05 538.54 417.99 540.08 C 416.74 541.07 415.56 542.13 414.35 543.16 C 412.72 543.94 410.91 544.32 409.11 544.15 C 406.51 543.74 403.87 543.52 401.25 543.85 C 396.97 542.50 393.07 540.14 389.44 537.57 C 387.45 536.32 386.53 533.72 387.52 531.57 Z"
       id="path69" />
    <path
       fill="#4fc471"
       opacity="1.00"
       d=" M 442.30 542.55 C 443.33 542.85 444.36 543.16 445.39 543.49 C 445.61 543.86 446.04 544.59 446.26 544.95 C 444.54 545.34 442.83 545.72 441.15 546.23 C 441.52 544.99 441.90 543.77 442.30 542.55 Z"
       id="path70" />
    <path
       fill="#4fc471"
       opacity="1.00"
       d=" M 400.56 555.88 C 400.32 551.56 404.87 549.76 407.94 547.90 C 410.25 553.63 416.05 556.23 420.80 559.53 C 418.13 561.25 416.29 565.93 412.51 564.50 C 407.93 562.71 403.29 560.10 400.56 555.88 Z"
       id="path71" />
  </g>
  <g
     id="#3a694cff">
    <path
       fill="#3a694c"
       opacity="1.00"
       d=" M 202.06 88.88 C 204.50 94.85 202.60 101.30 202.92 107.51 C 205.54 106.25 208.40 104.24 211.43 105.47 C 217.09 107.15 217.99 114.29 222.90 116.98 C 229.00 119.88 236.58 119.54 241.84 124.14 C 246.70 129.54 244.17 137.16 245.77 143.56 C 238.08 143.65 230.39 143.11 222.73 142.40 C 227.46 142.44 232.17 142.07 236.90 142.07 C 234.33 140.83 231.59 139.43 230.40 136.66 C 227.61 131.08 223.14 126.14 217.41 123.56 C 212.92 122.89 208.13 125.37 203.91 122.79 C 203.89 126.29 203.72 129.78 203.76 133.28 C 202.83 127.22 202.91 121.06 202.67 114.94 C 202.45 106.25 201.68 97.57 202.06 88.88 Z"
       id="path72" />
    <path
       fill="#3a694c"
       opacity="1.00"
       d=" M 231.81 154.46 C 235.52 154.10 239.25 153.87 242.98 153.75 C 244.65 153.68 246.32 153.63 247.99 153.54 C 247.66 153.92 247.01 154.66 246.68 155.04 C 250.59 159.50 250.72 165.69 251.89 171.21 C 251.97 173.28 252.02 175.35 252.05 177.42 C 250.94 182.42 250.16 187.50 248.77 192.44 C 247.09 189.39 246.03 186.05 245.26 182.67 C 243.05 173.45 239.45 164.62 237.49 155.33 C 235.60 155.01 233.71 154.69 231.81 154.46 Z"
       id="path73" />
  </g>
  <g
     id="#070f0514" />
  <g
     id="#24703afc">
    <path
       fill="#24703a"
       opacity="1.00"
       d=" M 63.54 107.55 C 65.28 107.46 66.92 108.19 68.59 108.60 C 67.86 110.13 67.49 111.95 66.19 113.13 C 64.49 114.07 62.67 114.75 60.94 115.61 C 60.81 114.67 60.67 113.73 60.51 112.80 C 58.94 112.39 57.38 111.97 55.82 111.55 C 58.32 110.10 60.69 108.26 63.54 107.55 Z"
       id="path77" />
  </g>
  <g
     id="#0f9d38ff">
    <path
       fill="#0f9d38"
       opacity="1.00"
       d=" M 35.24 109.57 C 35.70 109.34 36.62 108.88 37.08 108.65 C 39.46 110.95 39.56 114.45 40.34 117.48 C 41.66 118.16 42.98 118.85 44.30 119.54 C 41.29 121.54 37.78 122.63 34.14 122.14 C 33.68 119.05 33.28 115.94 32.86 112.84 C 33.64 111.74 34.41 110.63 35.24 109.57 Z"
       id="path78" />
    <path
       fill="#0f9d38"
       opacity="1.00"
       d=" M 309.96 207.85 C 319.93 206.70 329.97 206.39 340.00 206.04 C 350.39 205.64 361.10 207.01 370.55 211.54 C 377.32 216.33 376.52 225.82 380.92 232.17 C 384.37 234.17 388.66 233.36 392.48 233.64 C 390.49 235.09 388.46 236.48 386.42 237.87 C 382.78 237.48 378.95 237.91 375.47 236.62 C 372.94 234.33 372.42 230.71 371.36 227.63 C 370.01 222.76 368.21 217.13 363.17 214.92 C 346.46 207.39 327.79 210.81 310.12 211.09 C 310.08 210.28 310.00 208.66 309.96 207.85 Z"
       id="path79" />
    <path
       fill="#0f9d38"
       opacity="1.00"
       d=" M 126.44 344.54 C 128.98 342.74 131.30 340.64 133.88 338.88 C 132.01 344.30 129.77 349.59 128.12 355.08 C 125.90 362.46 125.75 370.54 128.15 377.90 C 130.33 383.88 133.69 389.37 137.61 394.36 C 150.90 411.38 163.38 429.08 177.74 445.25 C 183.85 452.80 190.11 460.25 196.04 467.94 C 198.23 471.05 197.97 475.07 198.53 478.67 C 205.87 479.69 212.96 477.22 220.19 476.52 C 218.25 477.72 216.31 478.92 214.43 480.21 C 207.16 481.52 199.88 483.61 192.42 482.67 C 191.84 479.09 192.19 475.07 190.02 471.97 C 183.66 463.69 176.93 455.71 170.31 447.63 C 159.54 435.59 150.13 422.44 140.22 409.72 C 133.91 400.98 126.34 392.91 122.34 382.74 C 120.32 377.07 120.04 370.88 120.80 364.96 C 121.61 357.87 125.62 351.63 126.44 344.54 Z"
       id="path80" />
    <path
       fill="#0f9d38"
       opacity="1.00"
       d=" M 409.11 544.15 C 410.91 544.32 412.72 543.94 414.35 543.16 C 415.48 549.80 422.40 551.86 426.71 556.01 C 424.79 557.27 422.80 558.42 420.80 559.53 C 416.05 556.23 410.25 553.63 407.94 547.90 C 408.35 546.65 408.73 545.40 409.11 544.15 Z"
       id="path81" />
  </g>
  <g
     id="#0e9836fc">
    <path
       fill="#0e9836"
       opacity="1.00"
       d=" M 50.96 114.28 C 52.59 113.39 54.22 112.50 55.82 111.55 C 57.38 111.97 58.94 112.39 60.51 112.80 C 60.67 113.73 60.81 114.67 60.94 115.61 C 61.03 118.85 56.71 117.82 54.64 117.47 C 53.16 117.06 51.71 116.58 50.25 116.12 C 50.43 115.66 50.78 114.74 50.96 114.28 Z"
       id="path82" />
  </g>
  <g
     id="#386549fe">
    <path
       fill="#386549"
       opacity="1.00"
       d=" M 343.00 145.15 C 358.35 144.02 373.75 142.99 389.14 143.84 C 395.88 144.85 402.67 145.43 409.43 146.26 C 410.32 148.34 411.19 150.44 412.04 152.55 C 408.13 153.27 404.22 154.09 400.25 154.41 C 395.45 154.84 390.78 153.33 386.03 152.91 C 382.86 152.47 379.56 152.53 376.54 151.38 C 373.59 149.82 371.68 146.78 368.61 145.41 C 363.59 144.11 358.35 145.05 353.25 145.31 C 349.83 145.38 346.42 145.13 343.00 145.15 Z"
       id="path83" />
  </g>
  <g
     id="#38664afe">
    <path
       fill="#38664a"
       opacity="1.00"
       d=" M 303.88 148.22 C 316.89 146.77 329.98 146.41 343.00 145.15 C 346.42 145.13 349.83 145.38 353.25 145.31 C 350.40 145.67 347.46 145.85 344.76 146.90 C 341.73 149.85 339.11 153.76 334.58 154.45 C 326.98 155.59 319.20 155.06 311.55 154.72 C 309.83 151.70 307.56 148.76 303.88 148.22 Z"
       id="path84" />
  </g>
  <g
     id="#417851ff">
    <path
       fill="#417851"
       opacity="1.00"
       d=" M 353.25 145.31 C 358.35 145.05 363.59 144.11 368.61 145.41 C 371.68 146.78 373.59 149.82 376.54 151.38 C 379.56 152.53 382.86 152.47 386.03 152.91 C 390.78 153.33 395.45 154.84 400.25 154.41 C 404.22 154.09 408.13 153.27 412.04 152.55 C 411.19 150.44 410.32 148.34 409.43 146.26 C 415.82 146.69 422.25 146.57 428.61 147.50 C 433.94 148.04 438.99 149.95 444.26 150.83 C 445.36 150.97 446.46 151.09 447.57 151.19 C 451.50 153.15 455.65 155.14 458.59 158.50 C 459.56 163.89 455.53 168.49 453.96 173.39 C 449.77 174.99 445.36 173.49 441.07 173.48 C 439.63 173.45 438.75 174.86 437.85 175.77 C 433.17 181.80 429.27 188.46 424.01 194.01 C 421.69 196.48 418.33 197.38 415.26 198.50 C 412.23 199.51 409.24 200.77 406.05 201.17 C 402.02 201.59 398.11 200.24 394.31 199.06 C 396.64 206.06 399.81 212.75 402.03 219.78 C 401.47 220.24 400.36 221.15 399.80 221.60 C 398.16 220.89 396.31 220.13 395.67 218.29 C 392.63 212.11 392.83 203.62 386.36 199.66 C 378.58 195.77 369.77 194.16 361.11 194.15 C 357.15 192.95 355.96 187.60 351.51 187.50 C 343.85 186.48 335.97 186.56 328.44 188.42 C 322.96 189.75 316.73 190.40 312.69 194.79 C 310.92 196.45 310.87 199.01 310.61 201.25 L 310.54 202.00 C 310.34 203.95 310.08 205.89 309.96 207.85 C 310.00 208.66 310.08 210.28 310.12 211.09 C 310.22 212.87 310.32 214.66 310.27 216.45 C 309.30 222.61 308.98 228.85 308.15 235.03 C 307.11 242.71 307.85 250.49 307.37 258.21 C 307.19 257.43 306.82 255.89 306.64 255.12 C 305.38 255.21 304.12 255.31 302.86 255.42 C 302.20 257.85 301.50 260.27 300.71 262.66 C 299.33 257.99 301.32 252.94 299.68 248.42 C 297.14 246.31 293.25 247.37 290.15 247.11 C 287.69 256.31 289.69 265.89 292.03 274.89 C 293.72 280.97 294.37 287.33 296.62 293.25 C 298.66 288.90 296.89 283.39 300.48 279.71 C 301.04 288.62 304.21 298.37 299.68 306.74 C 298.63 309.22 296.70 311.74 297.46 314.58 C 298.31 318.73 299.95 322.77 299.86 327.07 C 299.69 334.50 298.83 341.91 297.14 349.15 C 296.20 353.22 298.22 357.12 298.84 361.07 C 300.48 370.17 300.17 379.48 299.88 388.68 C 298.57 388.28 297.26 387.89 295.95 387.49 C 294.24 393.30 291.24 399.23 292.51 405.44 C 293.88 412.11 296.49 418.46 297.85 425.14 C 299.22 431.46 297.35 437.95 298.74 444.28 C 300.45 452.06 300.14 460.17 302.39 467.84 C 304.72 474.39 301.80 481.19 301.70 487.85 C 300.98 492.40 302.80 497.44 300.19 501.55 C 299.08 497.32 298.71 492.96 298.02 488.66 C 293.01 495.71 292.48 504.62 291.63 512.94 C 288.85 512.17 286.03 511.54 283.18 511.12 C 283.25 514.94 284.99 518.67 288.36 520.66 C 292.79 523.74 299.08 520.39 300.66 515.65 C 302.37 510.42 302.15 504.81 303.23 499.45 C 304.13 499.40 305.92 499.30 306.82 499.26 C 305.35 512.26 305.83 525.37 305.56 538.43 C 305.51 543.57 304.60 548.65 304.53 553.80 C 304.22 560.54 304.58 567.31 304.00 574.04 C 302.94 584.40 303.12 594.82 302.68 605.22 C 301.67 609.99 300.77 614.95 298.13 619.15 C 296.41 621.16 293.51 621.41 291.18 622.37 C 289.65 621.67 288.13 620.98 286.61 620.30 C 285.00 612.81 285.47 604.84 282.20 597.75 C 279.87 592.58 277.51 586.84 279.12 581.09 C 281.17 574.42 286.15 569.12 288.45 562.56 C 289.80 557.81 289.18 552.80 288.99 547.94 C 288.54 539.84 287.23 531.37 282.51 524.56 C 280.01 521.06 276.93 517.69 272.87 516.06 C 269.12 514.66 265.15 516.30 261.61 517.56 C 260.24 513.95 260.83 510.04 260.59 506.27 C 259.77 494.49 258.59 482.73 257.85 470.95 C 257.43 467.36 259.66 464.38 262.10 462.04 C 264.87 459.88 266.41 456.57 266.28 453.05 C 266.40 441.45 265.93 429.83 264.80 418.28 C 264.85 415.63 265.06 412.98 265.37 410.36 C 266.23 411.94 266.65 413.84 267.95 415.15 C 270.67 416.79 273.91 417.16 276.96 417.84 C 278.03 412.47 278.35 406.97 279.83 401.69 C 280.46 399.08 281.47 396.30 280.43 393.65 C 278.91 389.15 276.87 384.82 275.99 380.13 C 274.22 372.59 274.83 364.74 272.98 357.22 C 270.80 348.60 271.18 339.58 269.18 330.93 C 268.69 328.65 267.43 326.67 266.21 324.74 C 265.21 333.80 266.25 342.92 265.76 352.00 C 265.69 354.62 264.42 356.96 263.24 359.24 C 262.13 358.15 261.04 357.06 259.95 355.97 C 259.26 343.28 257.60 330.66 257.01 317.96 C 255.06 293.37 250.79 269.02 248.68 244.44 C 251.05 240.62 253.91 236.71 254.02 232.03 C 254.23 224.20 252.04 216.58 251.23 208.84 C 255.24 211.47 259.27 214.13 263.96 215.40 C 266.31 218.28 267.40 221.98 269.03 225.29 C 269.35 231.80 268.67 238.29 267.85 244.74 C 267.78 245.94 267.39 248.09 269.12 248.21 C 274.72 248.47 280.37 247.77 285.89 246.84 C 289.16 246.50 289.38 242.51 290.00 240.01 C 291.89 231.37 288.89 222.75 289.17 214.11 C 289.55 207.62 296.42 205.03 301.15 202.04 C 304.18 208.42 301.69 215.69 304.27 222.20 C 305.13 214.95 305.70 207.66 307.32 200.52 C 309.28 186.07 309.35 171.43 308.83 156.87 C 303.12 156.52 297.59 158.33 291.93 158.71 C 284.09 159.28 276.34 160.66 268.53 161.52 C 262.08 162.40 254.42 164.43 251.89 171.21 C 250.72 165.69 250.59 159.50 246.68 155.04 C 247.01 154.66 247.66 153.92 247.99 153.54 C 254.01 153.17 259.87 151.33 265.94 151.36 C 278.66 151.50 291.20 148.98 303.88 148.22 C 307.56 148.76 309.83 151.70 311.55 154.72 C 319.20 155.06 326.98 155.59 334.58 154.45 C 339.11 153.76 341.73 149.85 344.76 146.90 C 347.46 145.85 350.40 145.67 353.25 145.31 M 347.78 152.36 C 347.83 154.86 348.21 157.36 349.17 159.68 C 351.99 167.01 354.78 174.37 356.95 181.93 C 357.78 184.43 358.67 188.10 362.00 187.98 C 370.02 188.43 378.09 187.66 386.09 188.83 C 385.41 181.90 382.16 175.64 380.02 169.10 C 377.86 163.44 376.11 157.43 372.53 152.47 C 364.63 149.36 355.91 151.24 347.78 152.36 M 412.89 156.08 C 413.98 157.93 415.12 159.84 416.96 161.04 C 422.19 164.78 427.95 167.78 433.97 170.07 C 435.63 170.52 437.69 171.64 439.20 170.22 C 442.13 168.13 443.36 163.36 440.10 160.95 C 433.30 156.23 424.66 156.28 416.90 154.28 C 415.37 153.98 414.20 155.51 412.89 156.08 M 277.75 435.99 C 277.26 440.82 276.62 445.70 277.53 450.54 C 273.17 459.41 267.17 467.47 263.80 476.84 C 261.92 481.66 261.90 486.95 262.23 492.05 C 262.47 496.50 265.08 500.27 267.19 504.04 C 269.92 504.18 272.67 504.21 275.41 504.12 L 275.43 504.90 C 278.10 506.60 280.96 508.01 283.98 509.00 C 284.10 499.43 277.26 490.90 279.22 481.19 C 281.09 473.40 286.90 467.02 287.82 458.92 C 288.69 446.49 288.61 432.49 279.82 422.61 C 277.23 426.61 278.24 431.51 277.75 435.99 Z"
       id="path85" />
  </g>
  <g
     id="#4e9262ff">
    <path
       fill="#4e9262"
       opacity="1.00"
       d=" M 347.78 152.36 C 355.91 151.24 364.63 149.36 372.53 152.47 C 376.11 157.43 377.86 163.44 380.02 169.10 C 382.16 175.64 385.41 181.90 386.09 188.83 C 378.09 187.66 370.02 188.43 362.00 187.98 C 358.67 188.10 357.78 184.43 356.95 181.93 C 354.78 174.37 351.99 167.01 349.17 159.68 C 348.21 157.36 347.83 154.86 347.78 152.36 Z"
       id="path86" />
  </g>
  <g
     id="#4c8d5eff">
    <path
       fill="#4c8d5e"
       opacity="1.00"
       d=" M 412.89 156.08 C 414.20 155.51 415.37 153.98 416.90 154.28 C 424.66 156.28 433.30 156.23 440.10 160.95 C 443.36 163.36 442.13 168.13 439.20 170.22 C 437.69 171.64 435.63 170.52 433.97 170.07 C 427.95 167.78 422.19 164.78 416.96 161.04 C 415.12 159.84 413.98 157.93 412.89 156.08 Z"
       id="path87" />
  </g>
  <g
     id="#437957ff">
    <path
       fill="#437957"
       opacity="1.00"
       d=" M 219.30 155.68 C 223.48 155.43 227.63 154.80 231.81 154.46 C 233.71 154.69 235.60 155.01 237.49 155.33 C 239.45 164.62 243.05 173.45 245.26 182.67 C 246.03 186.05 247.09 189.39 248.77 192.44 C 250.16 187.50 250.94 182.42 252.05 177.42 C 256.16 188.88 256.21 201.30 259.95 212.89 C 261.42 211.93 262.92 211.01 264.39 210.06 C 268.53 214.04 269.49 219.78 269.03 225.29 C 267.40 221.98 266.31 218.28 263.96 215.40 C 259.27 214.13 255.24 211.47 251.23 208.84 C 252.04 216.58 254.23 224.20 254.02 232.03 C 253.91 236.71 251.05 240.62 248.68 244.44 C 247.11 236.20 247.51 227.46 244.41 219.60 C 237.68 218.24 230.79 219.86 224.02 220.21 C 217.33 220.54 210.77 221.82 204.24 223.17 C 202.86 223.07 201.49 222.95 200.13 222.82 C 200.35 214.07 199.11 205.30 199.98 196.59 C 208.28 195.84 216.31 193.36 224.53 192.08 C 226.67 191.54 229.02 191.17 230.73 189.68 C 231.75 187.89 232.02 185.81 232.55 183.86 C 227.41 182.64 222.17 183.64 217.00 183.94 C 212.05 184.22 207.14 184.89 202.20 185.29 C 200.58 185.07 198.98 184.78 197.38 184.50 C 194.98 177.97 193.21 171.17 190.05 164.94 C 189.08 162.77 186.88 161.66 184.96 160.47 C 188.45 159.82 191.89 158.88 195.37 158.17 C 203.38 157.71 211.35 156.75 219.30 155.68 Z"
       id="path88" />
    <path
       fill="#437957"
       opacity="1.00"
       d=" M 360.02 340.91 C 361.32 340.22 362.62 339.54 363.93 338.86 C 368.38 342.47 372.62 346.49 375.48 351.52 C 379.56 358.62 381.87 366.54 384.82 374.14 C 386.45 378.32 387.60 382.66 388.39 387.07 C 379.95 396.91 372.38 407.49 363.36 416.82 C 362.35 416.06 361.34 415.31 360.34 414.56 C 360.06 403.14 357.75 391.86 353.82 381.15 C 352.04 376.61 351.75 371.63 352.76 366.87 C 354.99 358.16 358.25 349.74 360.02 340.91 Z"
       id="path89" />
    <path
       fill="#437957"
       opacity="1.00"
       d=" M 182.92 479.23 C 184.26 481.42 185.00 484.29 187.48 485.50 C 190.07 486.92 192.94 487.85 195.88 488.20 C 197.88 488.35 199.89 488.35 201.89 488.20 C 201.56 490.15 200.34 492.39 201.74 494.20 C 206.88 502.00 211.92 509.92 217.84 517.17 C 222.34 522.77 229.32 525.67 233.69 531.37 C 235.57 533.56 235.55 536.55 235.63 539.28 C 231.07 543.56 226.86 548.34 221.29 551.36 C 213.28 550.75 204.65 549.00 198.66 543.27 C 195.02 536.38 194.69 528.14 190.53 521.43 C 186.22 514.76 182.13 507.94 177.53 501.46 C 175.04 498.01 173.55 493.98 172.60 489.87 C 173.57 487.83 174.24 485.57 175.77 483.87 C 178.37 483.08 181.14 483.28 183.82 483.08 C 183.56 481.78 183.26 480.50 182.92 479.23 Z"
       id="path90" />
  </g>
  <g
     id="#38654aff">
    <path
       fill="#38654a"
       opacity="1.00"
       d=" M 180.13 161.33 C 181.74 161.08 183.35 160.78 184.96 160.47 C 186.88 161.66 189.08 162.77 190.05 164.94 C 193.21 171.17 194.98 177.97 197.38 184.50 C 198.98 184.78 200.58 185.07 202.20 185.29 C 192.24 186.28 182.21 185.59 172.25 186.51 C 167.18 186.81 161.31 187.50 157.20 183.83 C 153.28 181.05 156.75 176.16 157.80 172.72 C 160.58 170.54 163.21 168.19 166.04 166.08 C 170.12 163.07 175.28 162.29 180.13 161.33 Z"
       id="path91" />
    <path
       fill="#38654a"
       opacity="1.00"
       d=" M 437.85 175.77 C 438.75 174.86 439.63 173.45 441.07 173.48 C 445.36 173.49 449.77 174.99 453.96 173.39 C 449.94 181.18 444.41 188.08 438.86 194.81 C 435.48 199.04 431.19 202.43 427.96 206.78 C 421.71 211.60 415.78 216.81 409.38 221.44 C 406.18 221.47 402.99 221.64 399.80 221.60 C 400.36 221.15 401.47 220.24 402.03 219.78 C 399.81 212.75 396.64 206.06 394.31 199.06 C 398.11 200.24 402.02 201.59 406.05 201.17 C 409.24 200.77 412.23 199.51 415.26 198.50 C 418.33 197.38 421.69 196.48 424.01 194.01 C 429.27 188.46 433.17 181.80 437.85 175.77 Z"
       id="path92" />
    <path
       fill="#38654a"
       opacity="1.00"
       d=" M 266.21 324.74 C 267.43 326.67 268.69 328.65 269.18 330.93 C 271.18 339.58 270.80 348.60 272.98 357.22 C 274.83 364.74 274.22 372.59 275.99 380.13 C 276.87 384.82 278.91 389.15 280.43 393.65 C 281.47 396.30 280.46 399.08 279.83 401.69 C 278.35 406.97 278.03 412.47 276.96 417.84 C 273.91 417.16 270.67 416.79 267.95 415.15 C 266.65 413.84 266.23 411.94 265.37 410.36 C 265.06 412.98 264.85 415.63 264.80 418.28 C 262.92 397.53 261.63 376.73 259.95 355.97 C 261.04 357.06 262.13 358.15 263.24 359.24 C 264.42 356.96 265.69 354.62 265.76 352.00 C 266.25 342.92 265.21 333.80 266.21 324.74 Z"
       id="path93" />
    <path
       fill="#38654a"
       opacity="1.00"
       d=" M 149.28 336.08 C 157.92 335.75 166.67 334.08 174.49 330.30 C 175.25 330.88 176.00 331.46 176.77 332.04 C 179.36 334.52 182.22 336.78 184.28 339.75 C 188.13 344.96 186.87 351.83 187.48 357.88 C 188.50 367.76 191.64 377.47 196.99 385.87 C 191.83 383.71 186.45 381.77 180.83 381.41 C 175.01 381.07 170.34 387.20 171.20 392.76 C 172.32 401.67 179.57 407.80 183.65 415.35 C 186.89 421.39 190.77 427.04 193.97 433.10 C 191.65 430.73 189.21 428.48 187.13 425.90 C 176.82 413.13 166.92 400.02 157.09 386.88 C 152.14 380.66 147.26 374.21 144.35 366.74 C 142.60 361.92 142.23 356.70 142.53 351.62 C 143.00 344.25 146.05 337.44 148.37 330.53 C 148.62 332.38 148.96 334.23 149.28 336.08 Z"
       id="path94" />
    <path
       fill="#38654a"
       opacity="1.00"
       d=" M 257.40 464.38 C 258.93 463.54 260.53 462.82 262.10 462.04 C 259.66 464.38 257.43 467.36 257.85 470.95 C 258.59 482.73 259.77 494.49 260.59 506.27 C 260.83 510.04 260.24 513.95 261.61 517.56 C 258.83 519.25 256.22 521.23 253.72 523.32 C 252.10 524.73 250.56 526.24 249.00 527.72 C 247.94 528.71 246.87 529.69 245.78 530.65 C 243.14 532.88 240.40 535.00 237.81 537.29 C 237.07 537.94 236.35 538.60 235.63 539.28 C 235.55 536.55 235.57 533.56 233.69 531.37 C 229.32 525.67 222.34 522.77 217.84 517.17 C 211.92 509.92 206.88 502.00 201.74 494.20 C 200.34 492.39 201.56 490.15 201.89 488.20 C 213.70 485.27 225.46 481.63 236.42 476.30 C 239.13 475.07 241.87 473.87 244.47 472.39 C 246.36 471.30 248.23 470.19 250.11 469.08 C 252.60 467.61 254.95 465.92 257.40 464.38 Z"
       id="path95" />
  </g>
  <g
     id="#129d3aff">
    <path
       fill="#129d3a"
       opacity="1.00"
       d=" M 136.18 187.97 C 137.82 186.74 139.50 185.58 141.14 184.35 C 140.81 187.95 139.95 191.46 139.08 194.97 C 138.50 195.05 137.35 195.22 136.78 195.31 C 135.56 195.31 134.35 195.30 133.13 195.29 C 134.25 192.89 135.27 190.46 136.18 187.97 Z"
       id="path96" />
  </g>
  <g
     id="#38664aff">
    <path
       fill="#38664a"
       opacity="1.00"
       d=" M 328.44 188.42 C 335.97 186.56 343.85 186.48 351.51 187.50 C 355.96 187.60 357.15 192.95 361.11 194.15 C 349.92 194.22 338.70 194.51 327.56 195.57 C 321.51 196.05 315.97 198.63 310.61 201.25 C 310.87 199.01 310.92 196.45 312.69 194.79 C 316.73 190.40 322.96 189.75 328.44 188.42 Z"
       id="path97" />
    <path
       fill="#38664a"
       opacity="1.00"
       d=" M 128.01 195.29 C 129.72 195.24 131.42 195.27 133.13 195.29 C 134.35 195.30 135.56 195.31 136.78 195.31 C 141.40 195.63 146.11 196.67 149.84 199.56 C 151.16 200.47 152.45 201.41 153.79 202.29 C 159.81 205.95 167.00 203.11 173.36 202.07 C 182.23 200.23 191.43 199.78 199.98 196.59 C 199.11 205.30 200.35 214.07 200.13 222.82 C 201.49 222.95 202.86 223.07 204.24 223.17 C 194.58 224.61 184.91 226.09 175.40 228.32 C 176.36 226.37 177.61 224.04 176.03 222.03 C 173.28 216.47 166.26 214.44 160.68 216.74 C 153.77 219.57 146.37 224.51 145.01 232.42 C 147.08 232.77 149.15 233.14 151.23 233.41 C 147.03 234.07 142.34 234.89 138.54 232.42 C 129.34 226.55 121.55 218.72 114.63 210.33 C 112.75 208.07 111.42 205.43 110.11 202.82 C 113.04 195.62 121.55 195.95 128.01 195.29 Z"
       id="path98" />
    <path
       fill="#38664a"
       opacity="1.00"
       d=" M 344.35 237.22 C 348.37 236.10 352.80 235.55 356.74 237.27 C 363.21 240.14 368.43 245.26 372.55 250.92 C 375.07 256.03 377.51 261.22 379.30 266.65 C 381.99 274.87 385.73 282.77 387.46 291.30 C 388.63 297.22 392.73 301.97 394.21 307.79 C 395.55 312.50 397.73 316.90 399.49 321.46 C 402.89 331.78 406.23 342.23 407.19 353.11 C 407.52 357.11 406.66 361.18 404.78 364.72 C 400.70 373.11 393.94 379.69 388.39 387.07 C 387.60 382.66 386.45 378.32 384.82 374.14 C 381.87 366.54 379.56 358.62 375.48 351.52 C 372.62 346.49 368.38 342.47 363.93 338.86 C 362.62 339.54 361.32 340.22 360.02 340.91 C 361.29 335.66 362.72 330.45 363.87 325.17 C 367.56 323.19 368.29 318.78 370.71 315.70 C 372.92 312.74 375.83 309.96 376.19 306.06 C 376.75 302.38 377.65 297.43 373.96 295.02 C 370.64 293.18 366.71 294.79 363.22 295.21 C 362.98 297.53 362.73 299.86 362.61 302.20 C 361.43 293.27 358.30 284.80 355.63 276.24 C 353.71 270.36 350.83 264.84 349.05 258.90 C 347.42 253.48 344.78 248.41 343.44 242.90 C 343.65 240.99 343.99 239.10 344.35 237.22 Z"
       id="path99" />
    <path
       fill="#38664a"
       opacity="1.00"
       d=" M 290.15 247.11 C 293.25 247.37 297.14 246.31 299.68 248.42 C 301.32 252.94 299.33 257.99 300.71 262.66 C 301.50 260.27 302.20 257.85 302.86 255.42 C 304.12 255.31 305.38 255.21 306.64 255.12 C 306.82 255.89 307.19 257.43 307.37 258.21 C 307.21 275.94 306.05 293.64 305.15 311.34 C 303.63 324.18 303.84 337.15 303.86 350.05 C 305.47 369.57 306.19 389.16 308.82 408.57 C 308.95 409.21 309.20 410.48 309.33 411.12 C 309.50 411.68 309.85 412.80 310.03 413.37 C 310.35 414.28 310.69 415.20 311.05 416.12 C 313.01 414.34 314.90 412.47 316.59 410.43 C 326.13 402.67 333.53 392.79 341.58 383.59 C 346.08 378.58 349.83 372.93 352.76 366.87 C 351.75 371.63 352.04 376.61 353.82 381.15 C 357.75 391.86 360.06 403.14 360.34 414.56 C 361.34 415.31 362.35 416.06 363.36 416.82 C 354.64 427.87 345.52 438.60 335.96 448.94 C 327.13 457.85 319.32 467.67 311.20 477.21 C 305.72 483.30 308.80 491.98 306.82 499.26 C 305.92 499.30 304.13 499.40 303.23 499.45 C 302.15 504.81 302.37 510.42 300.66 515.65 C 299.08 520.39 292.79 523.74 288.36 520.66 C 284.99 518.67 283.25 514.94 283.18 511.12 C 286.03 511.54 288.85 512.17 291.63 512.94 C 292.48 504.62 293.01 495.71 298.02 488.66 C 298.71 492.96 299.08 497.32 300.19 501.55 C 302.80 497.44 300.98 492.40 301.70 487.85 C 301.80 481.19 304.72 474.39 302.39 467.84 C 300.14 460.17 300.45 452.06 298.74 444.28 C 297.35 437.95 299.22 431.46 297.85 425.14 C 296.49 418.46 293.88 412.11 292.51 405.44 C 291.24 399.23 294.24 393.30 295.95 387.49 C 297.26 387.89 298.57 388.28 299.88 388.68 C 300.17 379.48 300.48 370.17 298.84 361.07 C 298.22 357.12 296.20 353.22 297.14 349.15 C 298.83 341.91 299.69 334.50 299.86 327.07 C 299.95 322.77 298.31 318.73 297.46 314.58 C 296.70 311.74 298.63 309.22 299.68 306.74 C 304.21 298.37 301.04 288.62 300.48 279.71 C 296.89 283.39 298.66 288.90 296.62 293.25 C 294.37 287.33 293.72 280.97 292.03 274.89 C 289.69 265.89 287.69 256.31 290.15 247.11 Z"
       id="path100" />
  </g>
  <g
     id="#119c39ff">
    <path
       fill="#119c39"
       opacity="1.00"
       d=" M 178.91 197.70 C 185.94 197.44 192.92 196.13 199.98 196.59 C 191.43 199.78 182.23 200.23 173.36 202.07 C 166.84 201.71 160.29 201.60 153.79 202.29 C 152.45 201.41 151.16 200.47 149.84 199.56 C 159.35 197.14 169.22 198.29 178.91 197.70 Z"
       id="path101" />
  </g>
  <g
     id="#46ae65fe">
    <path
       fill="#46ae65"
       opacity="1.00"
       d=" M 153.79 202.29 C 160.29 201.60 166.84 201.71 173.36 202.07 C 167.00 203.11 159.81 205.95 153.79 202.29 Z"
       id="path102" />
  </g>
  <g
     id="#417655ff">
    <path
       fill="#417655"
       opacity="1.00"
       d=" M 160.68 216.74 C 166.26 214.44 173.28 216.47 176.03 222.03 C 177.61 224.04 176.36 226.37 175.40 228.32 C 167.53 230.84 159.36 232.07 151.23 233.41 C 149.15 233.14 147.08 232.77 145.01 232.42 C 146.37 224.51 153.77 219.57 160.68 216.74 Z"
       id="path103" />
  </g>
  <g
     id="#0a14071a" />
  <g
     id="#050b040e" />
  <g
     id="#50c572fe">
    <path
       fill="#50c572"
       opacity="1.00"
       d=" M 313.63 262.03 C 313.97 258.47 318.17 258.55 320.79 257.72 C 323.39 264.42 326.09 271.08 328.22 277.96 C 330.94 284.99 333.81 291.98 335.83 299.26 C 339.85 310.38 341.74 322.21 341.92 334.02 C 342.09 343.28 339.14 352.15 337.06 361.07 C 335.55 367.37 333.44 373.51 331.63 379.72 C 327.98 392.43 317.68 401.43 309.33 411.12 C 309.20 410.48 308.95 409.21 308.82 408.57 C 314.27 402.65 319.69 396.44 322.59 388.81 C 325.78 379.00 328.77 369.13 331.05 359.06 C 335.21 345.69 334.22 331.35 331.44 317.80 C 330.36 312.16 328.11 306.84 326.60 301.31 C 324.51 293.51 320.48 286.41 318.47 278.59 C 316.98 273.04 313.03 268.01 313.63 262.03 Z"
       id="path106" />
    <path
       fill="#50c572"
       opacity="1.00"
       d=" M 40.82 516.73 C 42.10 513.15 44.45 508.04 49.20 509.80 C 46.97 517.07 44.61 524.39 43.78 531.98 C 43.29 539.83 42.89 548.54 47.98 555.13 C 49.46 558.82 47.13 565.24 42.22 563.15 C 38.66 559.65 35.76 555.19 35.75 550.03 C 34.24 538.64 37.58 527.51 40.82 516.73 Z"
       id="path107" />
    <path
       fill="#50c572"
       opacity="1.00"
       d=" M 59.67 574.11 C 59.81 565.35 57.80 555.76 62.91 547.95 L 63.81 548.18 C 64.83 548.49 65.85 548.81 66.86 549.15 C 67.24 554.98 66.61 560.87 67.44 566.66 C 68.16 570.81 73.11 571.62 76.35 573.10 C 75.66 575.48 75.03 578.40 72.57 579.58 C 70.07 579.80 67.77 578.61 65.48 577.82 C 63.37 576.90 60.51 576.63 59.67 574.11 Z"
       id="path108" />
  </g>
  <g
     id="#3f7352ff">
    <path
       fill="#3f7352"
       opacity="1.00"
       d=" M 363.22 295.21 C 366.71 294.79 370.64 293.18 373.96 295.02 C 377.65 297.43 376.75 302.38 376.19 306.06 C 375.83 309.96 372.92 312.74 370.71 315.70 C 368.29 318.78 367.56 323.19 363.87 325.17 C 364.25 317.49 363.59 309.81 362.61 302.20 C 362.73 299.86 362.98 297.53 363.22 295.21 Z"
       id="path109" />
  </g>
  <g
     id="#417755fe">
    <path
       fill="#417755"
       opacity="1.00"
       d=" M 166.35 318.08 C 167.98 317.52 170.02 317.05 171.38 318.46 C 175.30 321.06 174.32 326.28 174.49 330.30 C 166.67 334.08 157.92 335.75 149.28 336.08 C 148.96 334.23 148.62 332.38 148.37 330.53 C 148.51 330.10 148.79 329.25 148.93 328.82 C 153.53 323.57 159.90 320.43 166.35 318.08 Z"
       id="path110" />
  </g>
  <g
     id="#48875aff">
    <path
       fill="#48875a"
       opacity="1.00"
       d=" M 277.75 435.99 C 278.24 431.51 277.23 426.61 279.82 422.61 C 288.61 432.49 288.69 446.49 287.82 458.92 C 286.90 467.02 281.09 473.40 279.22 481.19 C 277.26 490.90 284.10 499.43 283.98 509.00 C 280.96 508.01 278.10 506.60 275.43 504.90 L 275.41 504.12 C 275.63 498.62 273.18 493.49 272.89 488.05 C 272.56 482.68 272.94 477.12 275.12 472.13 C 277.02 467.40 280.13 463.07 280.77 457.91 C 281.42 452.60 280.95 447.25 280.77 441.93 C 279.80 444.84 278.81 447.74 277.53 450.54 C 276.62 445.70 277.26 440.82 277.75 435.99 Z"
       id="path111" />
  </g>
  <g
     id="#39674bff">
    <path
       fill="#39674b"
       opacity="1.00"
       d=" M 234.22 442.47 C 235.81 443.28 237.40 444.08 238.95 444.98 C 240.71 446.66 242.45 448.37 244.13 450.14 C 245.19 453.08 245.24 456.21 244.56 459.24 C 241.81 460.87 239.11 462.58 236.20 463.91 C 229.07 465.61 221.61 467.98 214.27 466.11 C 213.93 463.11 214.09 459.91 212.71 457.16 C 211.02 454.33 208.74 451.92 206.78 449.30 C 211.69 451.76 217.67 453.16 222.93 450.92 C 227.24 448.92 230.56 445.41 234.22 442.47 Z"
       id="path112" />
  </g>
  <g
     id="#4d9061ff">
    <path
       fill="#4d9061"
       opacity="1.00"
       d=" M 277.53 450.54 C 278.81 447.74 279.80 444.84 280.77 441.93 C 280.95 447.25 281.42 452.60 280.77 457.91 C 280.13 463.07 277.02 467.40 275.12 472.13 C 272.94 477.12 272.56 482.68 272.89 488.05 C 273.18 493.49 275.63 498.62 275.41 504.12 C 272.67 504.21 269.92 504.18 267.19 504.04 C 265.08 500.27 262.47 496.50 262.23 492.05 C 261.90 486.95 261.92 481.66 263.80 476.84 C 267.17 467.47 273.17 459.41 277.53 450.54 Z"
       id="path113" />
  </g>
  <g
     id="#07100615" />
  <g
     id="#18301ffe">
    <path
       fill="#18301f"
       opacity="1.00"
       d=" M 422.53 491.55 C 425.26 489.42 428.02 487.23 431.42 486.28 C 431.57 489.66 432.06 493.11 431.38 496.46 C 429.45 499.38 426.26 501.12 423.64 503.36 C 422.57 499.51 422.38 495.51 422.53 491.55 Z"
       id="path115" />
    <path
       fill="#18301f"
       opacity="1.00"
       d=" M 459.48 525.54 C 462.31 524.62 465.33 524.62 468.28 524.43 C 467.76 526.11 467.41 527.90 466.47 529.43 C 464.52 530.68 462.30 531.42 460.31 532.60 C 458.51 532.18 456.72 531.75 454.93 531.34 C 456.13 529.23 456.95 526.41 459.48 525.54 Z"
       id="path116" />
  </g>
  <g
     id="#18311ffb">
    <path
       fill="#18311f"
       opacity="1.00"
       d=" M 91.46 492.55 C 92.97 492.43 94.49 492.31 96.02 492.18 C 94.52 494.77 93.12 497.41 91.68 500.04 C 90.70 499.92 89.71 499.82 88.73 499.71 C 88.48 499.15 87.98 498.03 87.73 497.47 C 88.99 495.84 90.21 494.19 91.46 492.55 Z"
       id="path117" />
  </g>
  <g
     id="#24713bff">
    <path
       fill="#24713b"
       opacity="1.00"
       d=" M 415.03 496.39 C 417.46 494.67 420.06 493.21 422.53 491.55 C 422.38 495.51 422.57 499.51 423.64 503.36 C 421.09 505.47 418.83 507.89 416.57 510.31 C 416.51 509.92 416.39 509.15 416.32 508.77 C 415.86 504.64 415.62 500.49 415.03 496.39 Z"
       id="path118" />
  </g>
  <g
     id="#0f9b37ff">
    <path
       fill="#0f9b37"
       opacity="1.00"
       d=" M 409.44 501.23 C 411.35 499.67 413.07 497.89 415.03 496.39 C 415.62 500.49 415.86 504.64 416.32 508.77 C 413.82 510.86 411.27 512.91 408.55 514.73 L 408.01 515.09 C 410.73 510.97 409.64 505.84 409.44 501.23 Z"
       id="path119" />
  </g>
  <g
     id="#4fc571fd">
    <path
       fill="#4fc571"
       opacity="1.00"
       d=" M 401.91 508.14 C 402.89 504.55 406.42 502.83 409.44 501.23 C 409.64 505.84 410.73 510.97 408.01 515.09 C 406.18 516.31 404.23 517.35 402.34 518.47 L 401.72 518.87 C 401.72 515.29 401.09 511.65 401.91 508.14 Z"
       id="path120" />
  </g>
  <g
     id="#0f9c38ff">
    <path
       fill="#0f9c38"
       opacity="1.00"
       d=" M 49.20 509.80 C 50.34 506.87 52.16 503.04 55.94 503.55 C 51.71 516.39 47.67 530.04 50.47 543.65 C 51.39 547.40 53.88 550.46 56.15 553.49 C 55.80 558.00 50.22 558.61 47.98 555.13 C 42.89 548.54 43.29 539.83 43.78 531.98 C 44.61 524.39 46.97 517.07 49.20 509.80 Z"
       id="path121" />
  </g>
  <g
     id="#1e3a27ff">
    <path
       fill="#1e3a27"
       opacity="1.00"
       d=" M 440.16 506.86 C 442.30 506.83 444.45 507.06 446.37 508.12 C 444.81 510.09 442.44 510.33 440.10 510.14 C 440.11 509.32 440.14 507.68 440.16 506.86 Z"
       id="path122" />
  </g>
  <g
     id="#25733bff">
    <path
       fill="#25733b"
       opacity="1.00"
       d=" M 402.34 518.47 C 404.23 517.35 406.18 516.31 408.01 515.09 L 408.55 514.73 C 408.50 517.19 407.55 520.33 409.91 522.06 C 415.39 527.37 423.02 529.08 430.42 529.29 C 429.64 532.66 426.56 534.31 423.93 536.10 C 421.58 534.30 418.72 533.58 415.84 533.24 C 410.75 532.65 406.10 529.98 402.44 526.49 C 400.22 524.32 402.02 521.05 402.34 518.47 Z"
       id="path123" />
  </g>
</svg>
